<?xml version="1.0" encoding="UTF-8"?>
<svg version="1.1" xmlns="http://www.w3.org/2000/svg" width="652" height="232">
<path d="M0 0 C215.16 0 430.32 0 652 0 C652 76.56 652 153.12 652 232 C436.84 232 221.68 232 0 232 C0 155.44 0 78.88 0 0 Z " fill="#FDFDFD" transform="translate(0,0)"/>
<path d="M0 0 C1.32741211 -0.02416992 1.32741211 -0.02416992 2.68164062 -0.04882812 C7.67034346 -0.05257059 10.83577852 0.20468572 14.9375 3.3125 C15.6903125 3.7146875 16.443125 4.116875 17.21875 4.53125 C22.71792835 7.70683186 25.77942822 10.9900262 28.1328125 16.9140625 C31.04334848 29.20613194 28.93763999 41.56208879 24.9375 53.3125 C24.230578 55.97072041 23.58298274 58.63835724 22.9375 61.3125 C19.9375 60.3125 19.9375 60.3125 17.9375 58.3125 C17.9375 59.6325 17.9375 60.9525 17.9375 62.3125 C16.9475 62.3125 15.9575 62.3125 14.9375 62.3125 C15.5975 62.9725 16.2575 63.6325 16.9375 64.3125 C16.9375 65.3025 16.9375 66.2925 16.9375 67.3125 C17.80375 67.68375 17.80375 67.68375 18.6875 68.0625 C22.64641723 70.26189846 24.55639411 72.26947336 26.125 76.5625 C28.22071439 86.23502795 29.64939259 97.65138266 26.9375 107.3125 C24.8125 109.75 24.8125 109.75 21.9375 112.3125 C21.09058594 113.09367187 21.09058594 113.09367187 20.2265625 113.890625 C13.85463654 119.62257587 9.06299017 120.61065528 0.625 120.4375 C-0.21095703 120.42847656 -1.04691406 120.41945313 -1.90820312 120.41015625 C-3.95975969 120.38670989 -6.01116777 120.35084266 -8.0625 120.3125 C-8.0625 119.6525 -8.0625 118.9925 -8.0625 118.3125 C-9.2175 118.395 -10.3725 118.4775 -11.5625 118.5625 C-16.40881461 118.57026653 -20.87676725 117.62866492 -25.5625 116.5 C-26.28115234 116.33467773 -26.99980469 116.16935547 -27.74023438 115.99902344 C-29.78125 115.48046875 -29.78125 115.48046875 -33.0625 114.3125 C-33.3925 113.3225 -33.7225 112.3325 -34.0625 111.3125 C-40.09677621 112.51935524 -44.3684447 115.27691175 -49.4140625 118.75390625 C-55.54661902 122.36288863 -63.15168588 121.94682593 -70.0625 121.3125 C-72.38863426 120.50786236 -74.29454675 119.58033732 -76.37890625 118.28515625 C-78.04031443 117.2004078 -78.04031443 117.2004078 -80.08203125 116.9375 C-82.85318065 116.06297553 -83.61193798 114.6545881 -85.1875 112.25 C-85.68507813 111.51652344 -86.18265625 110.78304687 -86.6953125 110.02734375 C-89.83201128 103.79875618 -90.45093624 97.48494579 -90.4375 90.625 C-90.43733887 89.84334473 -90.43717773 89.06168945 -90.43701172 88.25634766 C-90.29814452 81.11564996 -88.51221891 74.9978016 -86.0625 68.3125 C-85.32906323 65.65681411 -84.69360952 62.99471547 -84.0625 60.3125 C-83.4025 60.3125 -82.7425 60.3125 -82.0625 60.3125 C-81.44375 61.116875 -80.825 61.92125 -80.1875 62.75 C-78.03709015 65.34314129 -77.30855542 65.96470835 -74.0625 66.3125 C-74.85717708 63.03367627 -74.85717708 63.03367627 -78.0625 60.875 C-81.2029032 58.19257226 -81.26512443 57.95764547 -82.0625 54.3125 C-83.7079378 52.62487149 -85.37538577 50.9584651 -87.0625 49.3125 C-89.0432081 46.1999587 -89.0625 45.21370363 -89.0625 41.3125 C-89.7225 41.3125 -90.3825 41.3125 -91.0625 41.3125 C-92.78543135 36.84915816 -93.28490791 33.21048769 -93.1875 28.4375 C-93.16945313 27.28507812 -93.15140625 26.13265625 -93.1328125 24.9453125 C-93.10960938 24.07648438 -93.08640625 23.20765625 -93.0625 22.3125 C-92.4025 22.3125 -91.7425 22.3125 -91.0625 22.3125 C-91.0625 20.3325 -91.0625 18.3525 -91.0625 16.3125 C-90.0725 15.9825 -89.0825 15.6525 -88.0625 15.3125 C-87.7325 14.3225 -87.4025 13.3325 -87.0625 12.3125 C-85.171875 10.55859375 -85.171875 10.55859375 -82.8125 8.75 C-82.04421875 8.15058594 -81.2759375 7.55117188 -80.484375 6.93359375 C-78.07300591 5.31953218 -75.77037394 4.32561835 -73.0625 3.3125 C-72.7325 2.9825 -72.4025 2.6525 -72.0625 2.3125 C-70.60945692 2.21364084 -69.15171328 2.18170667 -67.6953125 2.1796875 C-66.36693359 2.17775391 -66.36693359 2.17775391 -65.01171875 2.17578125 C-64.07972656 2.17964844 -63.14773437 2.18351562 -62.1875 2.1875 C-61.26324219 2.18363281 -60.33898437 2.17976563 -59.38671875 2.17578125 C-58.05447266 2.17771484 -58.05447266 2.17771484 -56.6953125 2.1796875 C-55.87949707 2.18081543 -55.06368164 2.18194336 -54.22314453 2.18310547 C-52.0625 2.3125 -52.0625 2.3125 -49.0625 3.3125 C-47.16929405 3.48919922 -45.27270272 3.63093799 -43.375 3.75 C-38.37609861 4.12658795 -33.87209765 4.92511606 -29.0625 6.3125 C-29.0625 7.9625 -29.0625 9.6125 -29.0625 11.3125 C-28.19367188 10.68601562 -27.32484375 10.05953125 -26.4296875 9.4140625 C-25.26590247 8.58815054 -24.10182429 7.76265156 -22.9375 6.9375 C-22.36773437 6.525 -21.79796875 6.1125 -21.2109375 5.6875 C-14.30519159 0.82208811 -8.31469213 -0.03041219 0 0 Z " fill="#FBFEFE" transform="translate(178.0625,42.6875)"/>
<path d="M0 0 C19.47 0 38.94 0 59 0 C59 5.28 59 10.56 59 16 C45.47 16.33 31.94 16.66 18 17 C17.67 24.26 17.34 31.52 17 39 C27.89 39 38.78 39 50 39 C48 52 48 52 47 53 C44.85441173 53.08775605 42.70595579 53.10695219 40.55859375 53.09765625 C39.25341797 53.09443359 37.94824219 53.09121094 36.60351562 53.08789062 C35.2148431 53.07953401 33.82617123 53.07106905 32.4375 53.0625 C31.04492344 53.05748666 29.65234519 53.05292347 28.25976562 53.04882812 C24.83982549 53.03699442 21.4199075 53.01905831 18 53 C18 60.59 18 68.18 18 76 C32.85 76 47.7 76 63 76 C63 81.28 63 86.56 63 92 C42.21 92 21.42 92 0 92 C0 61.64 0 31.28 0 0 Z " fill="#72FAF7" transform="translate(316,57)"/>
<path d="M0 0 C23.76 0 47.52 0 72 0 C72 5.28 72 10.56 72 16 C63.09 16 54.18 16 45 16 C45.00523682 18.26673584 45.01047363 20.53347168 45.01586914 22.86889648 C45.03240568 30.34077457 45.04347148 37.81265344 45.05181217 45.28454494 C45.05704078 49.81674094 45.06413801 54.34891827 45.07543945 58.88110352 C45.08626914 63.2512283 45.09227701 67.62133508 45.09487724 71.99147224 C45.09673135 73.66250963 45.10035168 75.33354597 45.10573006 77.00457573 C45.11294159 79.33697551 45.1139909 81.66929993 45.11352539 84.00170898 C45.11712067 84.6994191 45.12071594 85.39712921 45.12442017 86.11598206 C45.11405216 90.88594784 45.11405216 90.88594784 44 92 C38.39 92 32.78 92 27 92 C27 66.92 27 41.84 27 16 C18.09 16 9.18 16 0 16 C0 10.72 0 5.44 0 0 Z " fill="#73FAF7" transform="translate(230,57)"/>
<path d="M0 0 C5.28 0 10.56 0 16 0 C17.66165207 1.66165207 17.11959725 3.6651603 17.12442017 5.88401794 C17.12082489 6.58172806 17.11722961 7.27943817 17.11352539 7.99829102 C17.11367142 8.72995483 17.11381744 9.46161865 17.1139679 10.2154541 C17.11326867 12.64496784 17.10547585 15.07440583 17.09765625 17.50390625 C17.0957921 19.18399514 17.09436819 20.86408457 17.09336853 22.54417419 C17.08954307 26.97473643 17.07971256 31.4052661 17.06866455 35.83581543 C17.05665655 41.14715654 17.05204832 46.45850852 17.04621124 51.76985931 C17.03650081 59.84659556 17.01734447 67.92326027 17 76 C29.54 76 42.08 76 55 76 C53 85 53 85 51 91 C34.17 91 17.34 91 0 91 C0 60.97 0 30.94 0 0 Z " fill="#75F9F6" transform="translate(395,57)"/>
<path d="M0 0 C6.27 0 12.54 0 19 0 C19 30.69 19 61.38 19 93 C12.73 93 6.46 93 0 93 C0 62.31 0 31.62 0 0 Z " fill="#70FAF7" transform="translate(465,57)"/>
<path d="M0 0 C0.7528125 0.4021875 1.505625 0.804375 2.28125 1.21875 C7.78042835 4.39433186 10.84192822 7.6775262 13.1953125 13.6015625 C16.10584848 25.89363194 14.00013999 38.24958879 10 50 C9.293078 52.65822041 8.64548274 55.32585724 8 58 C3.63617491 56.54539164 1.19586151 54.03306564 -1 50 C-1.4924081 45.01847138 -0.07266752 40.25565549 1.0625 35.4375 C2.70546484 28.43328146 2.70312372 21.75780929 0 15 C-3.93787891 11.06212109 -8.3197967 10.83419927 -13.6875 10.75 C-18.5769581 10.77985017 -22.52258633 11.46624123 -27.0625 13.24609375 C-29.02080111 14.00809398 -30.95414664 14.52963639 -33 15 C-33 15.66 -33 16.32 -33 17 C-33.96099609 17.36351562 -33.96099609 17.36351562 -34.94140625 17.734375 C-35.80636719 18.06953125 -36.67132813 18.4046875 -37.5625 18.75 C-38.40941406 19.07484375 -39.25632813 19.3996875 -40.12890625 19.734375 C-42.92097394 20.96516402 -45.52234891 22.39515318 -48.1550293 23.93408203 C-51.89856637 26.09688246 -55.74622885 28.07218388 -59.5703125 30.08789062 C-62.35846194 31.56480995 -65.09177598 33.05612108 -67.78515625 34.703125 C-70.2009765 36.11767936 -72.24426925 36.60632418 -75 37 C-74.67 35.68 -74.34 34.36 -74 33 C-73.443125 32.938125 -72.88625 32.87625 -72.3125 32.8125 C-68.26405897 31.39007477 -65.83857696 27.91719355 -63 24.8125 C-59.88548144 21.98996755 -57.18026975 21 -53 21 C-52.96261719 20.443125 -52.92523438 19.88625 -52.88671875 19.3125 C-51.54426081 15.81146432 -48.74941566 14.13711614 -45.8125 12 C-45.24724609 11.57460938 -44.68199219 11.14921875 -44.09960938 10.7109375 C-42.41433536 9.4522907 -40.71215727 8.22176528 -39 7 C-37.93136719 6.236875 -36.86273438 5.47375 -35.76171875 4.6875 C-33 3 -33 3 -30 3 C-30 2.34 -30 1.68 -30 1 C-21.82314941 -4.45123372 -8.1507934 -5.58036346 0 0 Z " fill="#45C4F9" transform="translate(193,46)"/>
<path d="M0 0 C4.48857131 2.01211817 6.62274496 4.22175625 8.9375 8.5 C10.56832955 11.48567256 12.17967382 13.05494746 15 15 C15.495 16.485 15.495 16.485 16 18 C16.66 18.33 17.32 18.66 18 19 C18.2475 19.721875 18.495 20.44375 18.75 21.1875 C20.21768312 24.48978702 22.08578558 26.20512121 24.7578125 28.5703125 C26 30 26 30 26 33 C26.5775 33.2475 27.155 33.495 27.75 33.75 C31.70891723 35.94939846 33.61889411 37.95697336 35.1875 42.25 C37.28321439 51.92252795 38.71189259 63.33888266 36 73 C33.875 75.4375 33.875 75.4375 31 78 C30.43539062 78.52078125 29.87078125 79.0415625 29.2890625 79.578125 C22.91713654 85.31007587 18.12549017 86.29815528 9.6875 86.125 C8.43356445 86.11146484 8.43356445 86.11146484 7.15429688 86.09765625 C5.10274031 86.07420989 3.05133223 86.03834266 1 86 C1 85.34 1 84.68 1 84 C-0.794375 84.0928125 -0.794375 84.0928125 -2.625 84.1875 C-9.25656305 84.2193315 -15.58434858 82.53318555 -22 81 C-22 77 -22 77 -20.71484375 75.26171875 C-15.90322581 71 -15.90322581 71 -11.8125 71 C-10.554375 71.33 -9.29625 71.66 -8 72 C-5.89785506 72.34585418 -3.79348012 72.67832285 -1.6875 73 C3.74491682 73.87245841 3.74491682 73.87245841 6 75 C11.54103626 75.48526387 16.84249745 75.21035823 22 73 C23.45291273 70.53744315 23.45291273 70.53744315 24 68 C24.33 67.67 24.66 67.34 25 67 C25.79999227 56.71813212 24.93034609 49.19785345 19.375 40.4375 C18.04992224 38.08849852 17.59954827 36.4183516 17.0625 33.8125 C16.46779334 29.98832068 16.46779334 29.98832068 14.125 28.875 C13.42375 28.58625 12.7225 28.2975 12 28 C8.69645251 23.87056563 6.88897692 19.52282826 5.015625 14.6015625 C3.72798644 11.3032268 2.24494076 8.1113937 0.734375 4.91015625 C0 3 0 3 0 0 Z " fill="#5BDFFA" transform="translate(169,77)"/>
<path d="M0 0 C2.8875412 0 3.71781961 1.2503345 5.75 3.25 C8.15922601 6.03753422 8.98987801 7.33869685 9.046875 11.0625 C8.40828576 14.784563 7.48952483 18.34744303 6.41796875 21.96484375 C4.94432417 29.14025335 5.33176475 37.18117659 8 44 C9.66488201 47.2122051 9.66488201 47.2122051 12.5625 47.6875 C22.65376394 48.60488763 30.30917958 47.5524686 39 42 C39.77214844 41.69964844 40.54429687 41.39929688 41.33984375 41.08984375 C44.03485327 39.98572091 46.3436786 38.66452352 48.8125 37.125 C51.96804971 35.19399197 55.1162356 33.37999323 58.4375 31.75 C61.98894524 30.10199493 61.98894524 30.10199493 65 28 C66.42226646 27.4581842 67.86200689 26.96095118 69.3125 26.5 C70.10140625 26.24605469 70.8903125 25.99210937 71.703125 25.73046875 C72.84007812 25.36888672 72.84007812 25.36888672 74 25 C75.7634375 24.4121875 75.7634375 24.4121875 77.5625 23.8125 C78.366875 23.544375 79.17125 23.27625 80 23 C78.625 25 78.625 25 77 27 C76.34 27 75.68 27 75 27 C75 27.66 75 28.32 75 29 C73.3427947 30.01560247 71.67299244 31.01061935 70 32 C67.31545712 34.03125071 64.72359567 36.17290861 62.125 38.3125 C61.44308594 38.86873047 60.76117188 39.42496094 60.05859375 39.99804688 C56.75320871 42.70216663 53.48945397 45.43958459 50.27734375 48.25390625 C47.79332312 50.39319845 45.36876948 52.1242764 42.4375 53.625 C39.71121017 55.05988938 37.29845627 56.48568412 34.75 58.25 C28.70056092 62.09964305 20.94154743 61.63714687 14 61 C11.67386574 60.19536236 9.76795325 59.26783732 7.68359375 57.97265625 C6.02218557 56.8879078 6.02218557 56.8879078 3.98046875 56.625 C1.20931935 55.75047553 0.45056202 54.3420881 -1.125 51.9375 C-1.62257813 51.20402344 -2.12015625 50.47054687 -2.6328125 49.71484375 C-5.76951128 43.48625618 -6.38843624 37.17244579 -6.375 30.3125 C-6.37483887 29.53084473 -6.37467773 28.74918945 -6.37451172 27.94384766 C-6.23564452 20.80314996 -4.44971891 14.6853016 -2 8 C-1.26656323 5.34431411 -0.63110952 2.68221547 0 0 Z " fill="#6CEFF9" transform="translate(94,103)"/>
<path d="M0 0 C7.07322005 0.07954476 13.16582594 1.21858276 19.88208008 3.35522461 C23.29828102 4.373948 26.60898176 4.90226917 30.14379883 5.32788086 C30.14379883 6.31788086 30.14379883 7.30788086 30.14379883 8.32788086 C28.17657875 9.70912049 26.17511554 11.04276212 24.14379883 12.32788086 C23.81379883 12.98788086 23.48379883 13.64788086 23.14379883 14.32788086 C17.83052282 13.87760323 12.88155867 13.06532765 7.70629883 11.76538086 C0.66119624 10.10286833 -5.57283045 8.77574197 -12.29370117 11.95288086 C-17.21113397 16.5105015 -18.23489556 21.15620181 -18.54370117 27.70288086 C-18.60944336 28.94811523 -18.67518555 30.19334961 -18.74291992 31.47631836 C-18.78030273 32.41733398 -18.81768555 33.35834961 -18.85620117 34.32788086 C-18.19620117 34.32788086 -17.53620117 34.32788086 -16.85620117 34.32788086 C-16.63706055 34.9453418 -16.41791992 35.56280273 -16.19213867 36.19897461 C-14.11276948 41.75241185 -11.63651846 46.38543056 -8.23901367 51.23413086 C-6.31623125 54.14546244 -5.14100097 57.08529089 -3.85620117 60.32788086 C-3.29932617 61.40038086 -2.74245117 62.47288086 -2.16870117 63.57788086 C-0.85620117 66.32788086 -0.85620117 66.32788086 -0.85620117 69.32788086 C0.62879883 69.82288086 0.62879883 69.82288086 2.14379883 70.32788086 C3.13598633 72.53491211 3.13598633 72.53491211 4.14379883 75.32788086 C5.68429615 78.21332014 7.29129416 81.05515131 8.90161133 83.90209961 C10.14379883 86.32788086 10.14379883 86.32788086 10.14379883 88.32788086 C9.15379883 88.32788086 8.16379883 88.32788086 7.14379883 88.32788086 C7.14379883 87.66788086 7.14379883 87.00788086 7.14379883 86.32788086 C6.15379883 85.99788086 5.16379883 85.66788086 4.14379883 85.32788086 C0.80066481 81.74012728 -1.11899151 78.91907783 -2.85620117 74.32788086 C-3.83715865 73.30919424 -4.83322195 72.30436102 -5.85620117 71.32788086 C-5.85620117 70.66788086 -5.85620117 70.00788086 -5.85620117 69.32788086 C-6.84620117 69.32788086 -7.83620117 69.32788086 -8.85620117 69.32788086 C-11.73120117 62.70288086 -11.73120117 62.70288086 -12.85620117 59.32788086 C-13.4878418 59.01979492 -14.11948242 58.71170898 -14.77026367 58.39428711 C-17.38107918 57.05954435 -17.93804285 55.86545451 -19.23120117 53.26538086 C-21.36861063 49.14276137 -23.7975233 45.41925249 -26.52416992 41.66381836 C-29.88362665 35.77245436 -30.12778009 29.96951929 -29.98120117 23.39038086 C-29.97217773 22.61114258 -29.9631543 21.8319043 -29.95385742 21.02905273 C-29.93053808 19.12852639 -29.89467703 17.22816078 -29.85620117 15.32788086 C-28.86620117 14.99788086 -27.87620117 14.66788086 -26.85620117 14.32788086 C-26.85620117 13.00788086 -26.85620117 11.68788086 -26.85620117 10.32788086 C-25.06323242 8.47631836 -25.06323242 8.47631836 -22.66870117 6.70288086 C-21.89139648 6.11249023 -21.1140918 5.52209961 -20.31323242 4.91381836 C-17.88808448 3.34846054 -15.54900737 2.34175262 -12.85620117 1.32788086 C-10.416837 -1.11148332 -3.43287829 0.01933238 0 0 Z " fill="#6CEBF8" transform="translate(117.856201171875,44.672119140625)"/>
<path d="M0 0 C7.49317006 -0.02318288 14.98633639 -0.04094543 22.47953415 -0.05181217 C25.95902525 -0.05702798 29.43849179 -0.06410199 32.91796875 -0.07543945 C36.91927322 -0.08839545 40.92055193 -0.09323898 44.921875 -0.09765625 C46.16990906 -0.10281754 47.41794312 -0.10797882 48.70379639 -0.11329651 C50.44514862 -0.11340981 50.44514862 -0.11340981 52.22167969 -0.11352539 C53.75390167 -0.11685631 53.75390167 -0.11685631 55.31707764 -0.12025452 C58 0 58 0 62 1 C62 6.94 62 12.88 62 19 C48.47 19 34.94 19 21 19 C21 25.27 21 31.54 21 38 C31.89 38 42.78 38 54 38 C55 43 55 43 53.6875 45.6875 C52 48 52 48 50 50 C49.77942165 46.02958963 50.11656068 44.76687864 52 41 C41.11 41 30.22 41 19 41 C18.9690625 35.5859375 18.9690625 35.5859375 18.9375 30.0625 C18.928396 28.92304932 18.91929199 27.78359863 18.90991211 26.60961914 C18.90741455 25.71879639 18.90491699 24.82797363 18.90234375 23.91015625 C18.89448853 22.53549194 18.89448853 22.53549194 18.88647461 21.13305664 C19 19 19 19 20 18 C23.02977804 17.91128727 26.03667022 17.8848065 29.06640625 17.90234375 C29.97502914 17.9037587 30.88365204 17.90517365 31.81980896 17.90663147 C34.73407221 17.91224807 37.64825981 17.92480335 40.5625 17.9375 C42.53320202 17.94251286 44.50390524 17.94707614 46.47460938 17.95117188 C51.31643559 17.96222289 56.15820495 17.97949862 61 18 C61 12.72 61 7.44 61 2 C41.53 2 22.06 2 2 2 C2 32.36 2 62.72 2 94 C22.79 94 43.58 94 65 94 C65 88.72 65 83.44 65 78 C50.15 78 35.3 78 20 78 C20 70.41 20 62.82 20 55 C29.57 55 39.14 55 49 55 C49 55.33 49 55.66 49 56 C40.42 56.33 31.84 56.66 23 57 C22.67 63.27 22.34 69.54 22 76 C26.62128906 75.94779297 26.62128906 75.94779297 31.3359375 75.89453125 C34.31118848 75.87115262 37.28642934 75.85292639 40.26171875 75.83520508 C42.33370524 75.82009414 44.40565963 75.79960459 46.47753906 75.77368164 C49.45125233 75.73739949 52.42454373 75.72029702 55.3984375 75.70703125 C56.32868744 75.69154739 57.25893738 75.67606354 58.21737671 75.66011047 C59.07811798 75.65988388 59.93885925 75.65965729 60.82568359 75.65942383 C61.58513275 75.65276199 62.34458191 75.64610016 63.12704468 75.63923645 C63.74511993 75.75828842 64.36319519 75.87734039 65 76 C67.42457025 79.63685537 67.29768407 82.36232779 67.25 86.5625 C67.26160156 87.59020508 67.26160156 87.59020508 67.2734375 88.63867188 C67.2533867 93.7466133 67.2533867 93.7466133 65 96 C62.33653259 96.20927429 62.33653259 96.20927429 58.91381836 96.15112305 C57.63586899 96.13417892 56.35791962 96.1172348 55.04124451 96.09977722 C53.64077005 96.0707861 52.24030323 96.04142442 50.83984375 96.01171875 C49.41021414 95.98809116 47.98057187 95.96521781 46.55091858 95.94306946 C43.55389704 95.89451025 40.55710508 95.83913807 37.56030273 95.77856445 C33.71106459 95.70097486 29.86175082 95.63663587 26.01219845 95.57690716 C23.06027271 95.53027388 20.10845625 95.47849076 17.15664864 95.42493629 C15.73683282 95.39945292 14.31699513 95.37516011 12.8971386 95.3520565 C10.91693139 95.31869848 8.93685069 95.27806697 6.95678711 95.23706055 C5.82808701 95.21548386 4.6993869 95.19390717 3.53648376 95.17167664 C1 95 1 95 0 94 C-0.09525367 91.07805335 -0.12552736 88.17979671 -0.11352539 85.25756836 C-0.11367142 84.3405867 -0.11381744 83.42360504 -0.1139679 82.47883606 C-0.1132684 79.43248164 -0.10547428 76.38618755 -0.09765625 73.33984375 C-0.0957922 71.23377007 -0.09436824 69.12769597 -0.09336853 67.0216217 C-0.08954231 61.46657117 -0.07971114 55.91154659 -0.06866455 50.35650635 C-0.05845267 44.6927526 -0.05387139 39.02899467 -0.04882812 33.36523438 C-0.03808896 22.24347815 -0.0210113 11.12174123 0 0 Z " fill="#E1FEFE" transform="translate(314,55)"/>
<path d="M0 0 C6.27 0 12.54 0 19 0 C19 30.69 19 61.38 19 93 C12.73 93 6.46 93 0 93 C0 62.31 0 31.62 0 0 Z M2 2 C2.33 31.04 2.66 60.08 3 90 C7.29 90 11.58 90 16 90 C16 60.96 16 31.92 16 2 C11.38 2 6.76 2 2 2 Z " fill="#99F8F2" transform="translate(465,57)"/>
<path d="M0 0 C0.7528125 0.4021875 1.505625 0.804375 2.28125 1.21875 C7.78042835 4.39433186 10.84192822 7.6775262 13.1953125 13.6015625 C15.4759271 23.23328435 15.07614416 34.60067061 12 44 C11.01 44.495 11.01 44.495 10 45 C10.0721875 44.33097656 10.144375 43.66195312 10.21875 42.97265625 C10.83077868 36.63985944 11.10859715 30.35815297 11.125 24 C11.12951172 23.27047119 11.13402344 22.54094238 11.13867188 21.78930664 C11.18667495 16.79516277 11.18667495 16.79516277 10 12 C9.360625 11.690625 8.72125 11.38125 8.0625 11.0625 C6 10 6 10 5.22265625 7.578125 C4.21146937 4.77843153 4.21146937 4.77843153 1.3984375 3.63671875 C0.40070313 3.32347656 -0.59703125 3.01023437 -1.625 2.6875 C-2.62789063 2.36136719 -3.63078125 2.03523438 -4.6640625 1.69921875 C-5.43492187 1.46847656 -6.20578125 1.23773438 -7 1 C-7 0.34 -7 -0.32 -7 -1 C-13.27 -0.67 -19.54 -0.34 -26 0 C-26.33 1.32 -26.66 2.64 -27 4 C-28.7421875 5.34375 -28.7421875 5.34375 -30.875 6.5 C-34.00389391 8.31116977 -36.11615282 9.82100788 -38 13 C-32.83990478 11.14211216 -32.83990478 11.14211216 -27.84375 8.90625 C-23.63256186 7.56422301 -19.57598376 7.78991381 -15.1875 7.875 C-14.30384766 7.88402344 -13.42019531 7.89304687 -12.50976562 7.90234375 C-10.33972641 7.92580363 -8.16982753 7.96167135 -6 8 C-5.505 9.485 -5.505 9.485 -5 11 C-5.97839844 10.96519531 -6.95679688 10.93039063 -7.96484375 10.89453125 C-15.58685655 10.73714455 -21.88594275 11.07246685 -29 14 C-30.32784745 14.35455612 -31.66012984 14.69399861 -33 15 C-33 15.66 -33 16.32 -33 17 C-33.96099609 17.36351562 -33.96099609 17.36351562 -34.94140625 17.734375 C-35.80636719 18.06953125 -36.67132813 18.4046875 -37.5625 18.75 C-38.40941406 19.07484375 -39.25632813 19.3996875 -40.12890625 19.734375 C-42.92097394 20.96516402 -45.52234891 22.39515318 -48.1550293 23.93408203 C-51.89856637 26.09688246 -55.74622885 28.07218388 -59.5703125 30.08789062 C-62.35846194 31.56480995 -65.09177598 33.05612108 -67.78515625 34.703125 C-70.2009765 36.11767936 -72.24426925 36.60632418 -75 37 C-74.67 35.68 -74.34 34.36 -74 33 C-73.443125 32.938125 -72.88625 32.87625 -72.3125 32.8125 C-68.26405897 31.39007477 -65.83857696 27.91719355 -63 24.8125 C-59.88548144 21.98996755 -57.18026975 21 -53 21 C-52.96261719 20.443125 -52.92523438 19.88625 -52.88671875 19.3125 C-51.54426081 15.81146432 -48.74941566 14.13711614 -45.8125 12 C-45.24724609 11.57460938 -44.68199219 11.14921875 -44.09960938 10.7109375 C-42.41433536 9.4522907 -40.71215727 8.22176528 -39 7 C-37.93136719 6.236875 -36.86273438 5.47375 -35.76171875 4.6875 C-33 3 -33 3 -30 3 C-30 2.34 -30 1.68 -30 1 C-21.82314941 -4.45123372 -8.1507934 -5.58036346 0 0 Z " fill="#63DDF7" transform="translate(193,46)"/>
<path d="M0 0 C19.47 0 38.94 0 59 0 C59 5.28 59 10.56 59 16 C45.8 16 32.6 16 19 16 C19 15.67 19 15.34 19 15 C31.21 14.67 43.42 14.34 56 14 C56.495 7.565 56.495 7.565 57 1 C38.52 1 20.04 1 1 1 C1 30.37 1 59.74 1 90 C20.47 90 39.94 90 60 90 C60 85.71 60 81.42 60 77 C45.81 77 31.62 77 17 77 C17 68.75 17 60.5 17 52 C26.9 52 36.8 52 47 52 C47 52.33 47 52.66 47 53 C37.43 53 27.86 53 18 53 C18 60.59 18 68.18 18 76 C32.85 76 47.7 76 63 76 C63 81.28 63 86.56 63 92 C42.21 92 21.42 92 0 92 C0 61.64 0 31.28 0 0 Z " fill="#9BF6F4" transform="translate(316,57)"/>
<path d="M0 0 C0.804375 -0.00128906 1.60875 -0.00257812 2.4375 -0.00390625 C3.283125 -0.00003906 4.12875 0.00382812 5 0.0078125 C6.2684375 0.00201172 6.2684375 0.00201172 7.5625 -0.00390625 C8.366875 -0.00261719 9.17125 -0.00132813 10 0 C10.7425 0.00112793 11.485 0.00225586 12.25 0.00341797 C14 0.1328125 14 0.1328125 15 1.1328125 C15.09492722 3.47535032 15.12559791 5.78827354 15.11352539 8.13110352 C15.11367142 8.86276733 15.11381744 9.59443115 15.1139679 10.3482666 C15.11326867 12.77778034 15.10547585 15.20721833 15.09765625 17.63671875 C15.0957921 19.31680764 15.09436819 20.99689707 15.09336853 22.67698669 C15.08954307 27.10754893 15.07971256 31.5380786 15.06866455 35.96862793 C15.05665655 41.27996904 15.05204832 46.59132102 15.04621124 51.90267181 C15.03650081 59.97940806 15.01734447 68.05607277 15 76.1328125 C26.88 76.1328125 38.76 76.1328125 51 76.1328125 C51 76.4628125 51 76.7928125 51 77.1328125 C38.79 77.1328125 26.58 77.1328125 14 77.1328125 C13.67 52.3828125 13.34 27.6328125 13 2.1328125 C7.72 1.8028125 2.44 1.4728125 -3 1.1328125 C-3 31.1628125 -3 61.1928125 -3 92.1328125 C22.245 91.6378125 22.245 91.6378125 48 91.1328125 C48.99 87.5028125 49.98 83.8728125 51 80.1328125 C51.99 78.6478125 51.99 78.6478125 53 77.1328125 C51.89320388 90.23960862 51.89320388 90.23960862 48 94.1328125 C45.792099 94.41801453 45.792099 94.41801453 43.01538086 94.4675293 C41.97768051 94.49062668 40.93998016 94.51372406 39.87083435 94.53752136 C38.74685745 94.55220963 37.62288055 94.56689789 36.46484375 94.58203125 C35.31585098 94.60376907 34.16685822 94.6255069 32.98304749 94.64790344 C30.55119651 94.6918719 28.11925518 94.73105984 25.68725586 94.76586914 C21.94941819 94.82013946 18.21213136 94.8902911 14.47460938 94.96289062 C12.1172035 95.00354298 9.75978176 95.04328743 7.40234375 95.08203125 C5.71334206 95.11317268 5.71334206 95.11317268 3.99021912 95.14494324 C2.43839684 95.16540459 2.43839684 95.16540459 0.85522461 95.1862793 C-0.06029678 95.20023239 -0.97581818 95.21418549 -1.91908264 95.2285614 C-4 95.1328125 -4 95.1328125 -5 94.1328125 C-5.10056691 91.24675234 -5.13615375 88.38458675 -5.12939453 85.49804688 C-5.13114685 84.59242508 -5.13289917 83.68680328 -5.13470459 82.7537384 C-5.13912454 79.74466057 -5.13618461 76.73564098 -5.1328125 73.7265625 C-5.1334855 71.64530425 -5.13445549 69.56404607 -5.13571167 67.48278809 C-5.13718884 63.11465712 -5.13503348 58.74654657 -5.13037109 54.37841797 C-5.1246738 48.76566697 -5.1279527 43.15296378 -5.13394356 37.54021454 C-5.13754866 33.24069861 -5.13641082 28.94119412 -5.13381577 24.64167786 C-5.13314636 22.57151789 -5.1339754 20.5013569 -5.13629532 18.43119812 C-5.13882102 15.54329664 -5.13498242 12.65547372 -5.12939453 9.76757812 C-5.13141876 8.90312576 -5.13344299 8.0386734 -5.13552856 7.14802551 C-5.10979606 0.00776228 -5.10979606 0.00776228 0 0 Z " fill="#C3FCFB" transform="translate(398,55.8671875)"/>
<path d="M0 0 C23.76 0 47.52 0 72 0 C72 5.28 72 10.56 72 16 C63.09 16 54.18 16 45 16 C45.00523682 18.26673584 45.01047363 20.53347168 45.01586914 22.86889648 C45.03240568 30.34077457 45.04347148 37.81265344 45.05181217 45.28454494 C45.05704078 49.81674094 45.06413801 54.34891827 45.07543945 58.88110352 C45.08626914 63.2512283 45.09227701 67.62133508 45.09487724 71.99147224 C45.09673135 73.66250963 45.10035168 75.33354597 45.10573006 77.00457573 C45.11294159 79.33697551 45.1139909 81.66929993 45.11352539 84.00170898 C45.11712067 84.6994191 45.12071594 85.39712921 45.12442017 86.11598206 C45.11405216 90.88594784 45.11405216 90.88594784 44 92 C38.39 92 32.78 92 27 92 C27 67.25 27 42.5 27 17 C27.33 17 27.66 17 28 17 C28 41.09 28 65.18 28 90 C32.95 90 37.9 90 43 90 C42.99476318 87.76355713 42.98952637 85.52711426 42.98413086 83.22290039 C42.96759418 75.85080722 42.95652846 68.47871326 42.94818783 61.10660648 C42.94295926 56.63494451 42.93586211 52.16330147 42.92456055 47.69165039 C42.91373071 43.37988027 42.90772296 39.06812841 42.90512276 34.75634575 C42.90326868 33.10763702 42.8996484 31.45892934 42.89426994 29.81022835 C42.88705822 27.50896128 42.88600911 25.2077706 42.88647461 22.90649414 C42.884254 21.5941127 42.88203339 20.28173126 42.87974548 18.92958069 C43 16 43 16 44 15 C45.92667507 14.91251793 47.85651861 14.89302666 49.78515625 14.90234375 C50.95498047 14.90556641 52.12480469 14.90878906 53.33007812 14.91210938 C54.56177734 14.92048828 55.79347656 14.92886719 57.0625 14.9375 C58.91584961 14.94426758 58.91584961 14.94426758 60.80664062 14.95117188 C63.87111413 14.96300382 66.93556293 14.98093992 70 15 C70 10.38 70 5.76 70 1 C47.23 1 24.46 1 1 1 C1 5.62 1 10.24 1 15 C8.92 15 16.84 15 25 15 C25 15.33 25 15.66 25 16 C16.75 16 8.5 16 0 16 C0 10.72 0 5.44 0 0 Z " fill="#A3F5F4" transform="translate(230,57)"/>
<path d="M0 0 C4.48857131 2.01211817 6.62274496 4.22175625 8.9375 8.5 C10.56832955 11.48567256 12.17967382 13.05494746 15 15 C15.33 15.99 15.66 16.98 16 18 C16.66 18.33 17.32 18.66 18 19 C18.2475 19.721875 18.495 20.44375 18.75 21.1875 C20.21768312 24.48978702 22.08578558 26.20512121 24.7578125 28.5703125 C26 30 26 30 26 33 C26.5775 33.2475 27.155 33.495 27.75 33.75 C31.70891723 35.94939846 33.61889411 37.95697336 35.1875 42.25 C37.33472699 52.16027842 38.36228598 63.04465195 36 73 C35.67 73 35.34 73 35 73 C35 66.07 35 59.14 35 52 C34.34 52 33.68 52 33 52 C32.505 47.545 32.505 47.545 32 43 C31.34 43 30.68 43 30 43 C29.67 41.68 29.34 40.36 29 39 C28.34 39 27.68 39 27 39 C24.95830515 36.09451118 24 34.59857954 24 31 C23.34 31 22.68 31 22 31 C20.7109375 29.46875 20.7109375 29.46875 19.375 27.5 C18.92898437 26.8503125 18.48296875 26.200625 18.0234375 25.53125 C17.68570313 25.0259375 17.34796875 24.520625 17 24 C16.34 24.33 15.68 24.66 15 25 C15.33 25.99 15.66 26.98 16 28 C16.66 28.33 17.32 28.66 18 29 C18.69261182 30.68205727 19.30541041 32.39740182 19.875 34.125 C21.0428534 37.49397486 22.19238977 40.58696652 24.0625 43.625 C28.32449016 51.04911188 29.47439462 56.55573992 28 65 C27.34 65 26.68 65 26 65 C25.97421875 64.16597656 25.9484375 63.33195312 25.921875 62.47265625 C25.48934118 53.89079211 23.96475562 47.67519155 19.375 40.4375 C18.04992224 38.08849852 17.59954827 36.4183516 17.0625 33.8125 C16.46779334 29.98832068 16.46779334 29.98832068 14.125 28.875 C13.073125 28.441875 13.073125 28.441875 12 28 C8.69645251 23.87056563 6.88897692 19.52282826 5.015625 14.6015625 C3.72798644 11.3032268 2.24494076 8.1113937 0.734375 4.91015625 C0 3 0 3 0 0 Z " fill="#A0F6F4" transform="translate(169,77)"/>
<path d="M0 0 C20.13 0 40.26 0 61 0 C61 5.94 61 11.88 61 18 C47.47 18 33.94 18 20 18 C20 24.27 20 30.54 20 37 C30.89 37 41.78 37 53 37 C54 42 54 42 52.6875 44.6875 C51 47 51 47 49 49 C48.77942165 45.02958963 49.11656068 43.76687864 51 40 C40.11 40 29.22 40 18 40 C17.9690625 34.5859375 17.9690625 34.5859375 17.9375 29.0625 C17.928396 27.92304932 17.91929199 26.78359863 17.90991211 25.60961914 C17.90741455 24.71879639 17.90491699 23.82797363 17.90234375 22.91015625 C17.89448853 21.53549194 17.89448853 21.53549194 17.88647461 20.13305664 C18 18 18 18 19 17 C22.02977804 16.91128727 25.03667022 16.8848065 28.06640625 16.90234375 C28.97502914 16.9037587 29.88365204 16.90517365 30.81980896 16.90663147 C33.73407221 16.91224807 36.64825981 16.92480335 39.5625 16.9375 C41.53320202 16.94251286 43.50390524 16.94707614 45.47460938 16.95117188 C50.31643559 16.96222289 55.15820495 16.97949862 60 17 C60 11.72 60 6.44 60 1 C40.53 1 21.06 1 1 1 C1 31.03 1 61.06 1 92 C0.67 92 0.34 92 0 92 C0 61.64 0 31.28 0 0 Z " fill="#CCFDFD" transform="translate(315,56)"/>
<path d="M0 0 C-3.79541663 2.21399303 -7.75629421 3.00980198 -12 4 C-12 4.66 -12 5.32 -12 6 C-12.49886719 6.24492188 -12.99773437 6.48984375 -13.51171875 6.7421875 C-18.69276139 9.43967828 -23.36134684 12.59744372 -28 16.125 C-28.57580811 16.5566748 -29.15161621 16.98834961 -29.74487305 17.43310547 C-32.48647456 19.55592707 -33.87973694 20.63921082 -35 24 C-36.97082038 24.72263414 -38.94397405 25.44023635 -40.93359375 26.109375 C-43.95536891 27.41176581 -45.79722859 29.60841961 -48 32 C-49.485 32.495 -49.485 32.495 -51 33 C-51.33 33.99 -51.66 34.98 -52 36 C-53.32 36 -54.64 36 -56 36 C-56.33 37.32 -56.66 38.64 -57 40 C-53.40608886 38.66511872 -50.24509304 37.03977277 -47 35 C-46.67 35.66 -46.34 36.32 -46 37 C-46.804375 37.474375 -47.60875 37.94875 -48.4375 38.4375 C-50.84753488 39.76900154 -50.84753488 39.76900154 -52 41 C-54.33297433 41.04092937 -56.66705225 41.04241723 -59 41 C-59.1875 38.625 -59.1875 38.625 -59 36 C-56 34 -56 34 -53 34 C-53 33.34 -53 32.68 -53 32 C-52.01 32 -51.02 32 -50 32 C-49.67 31.01 -49.34 30.02 -49 29 C-48.01 29 -47.02 29 -46 29 C-45.95875 28.4225 -45.9175 27.845 -45.875 27.25 C-44.53737351 23.81038902 -42.14042375 22.7586373 -39 21 C-38.01 21 -37.02 21 -36 21 C-36 20.01 -36 19.02 -36 18 C-39.63 17.67 -43.26 17.34 -47 17 C-47 16.34 -47 15.68 -47 15 C-54.66204356 14.02704209 -62.41717766 13.04314262 -70 15 C-68.625 13 -68.625 13 -66 11 C-58.63923042 9.97570865 -51.48083488 11.74488725 -44.375 13.5 C-43.37082031 13.73847656 -42.36664063 13.97695313 -41.33203125 14.22265625 C-38.88544557 14.80517665 -36.44178283 15.39772347 -34 16 C-33.72414062 15.36578125 -33.44828125 14.7315625 -33.1640625 14.078125 C-31.6104466 11.30455568 -29.95742018 10.93392216 -27 10 C-27 9.01 -27 8.02 -27 7 C-27.99 7.04125 -28.98 7.0825 -30 7.125 C-34.23835866 7.1423348 -37.93193985 6.14191162 -42 5 C-42 4.67 -42 4.34 -42 4 C-36.21101581 3.79325056 -31.57067277 4.40837921 -26 6 C-26 7.65 -26 9.3 -26 11 C-25.13117188 10.37351562 -24.26234375 9.74703125 -23.3671875 9.1015625 C-22.20340247 8.27565054 -21.03932429 7.45015156 -19.875 6.625 C-19.30523437 6.2125 -18.73546875 5.8 -18.1484375 5.375 C-12.24444536 1.21536918 -7.31605628 -0.29264225 0 0 Z " fill="#D6F8FE" transform="translate(175,43)"/>
<path d="M0 0 C0.33 0 0.66 0 1 0 C1.57898323 4.55949297 1.93212354 7.47073482 -0.5 11.4609375 C-5.05242812 16.81359712 -10.13256683 21.34465092 -17.33007812 22.3137207 C-19.73330794 22.3910937 -22.09792683 22.35171645 -24.5 22.25 C-25.73363281 22.22292969 -25.73363281 22.22292969 -26.9921875 22.1953125 C-28.99530804 22.1487283 -30.99781821 22.07700699 -33 22 C-33 21.34 -33 20.68 -33 20 C-34.794375 20.0928125 -34.794375 20.0928125 -36.625 20.1875 C-43.25656305 20.2193315 -49.58434858 18.53318555 -56 17 C-56 13 -56 13 -54.71484375 11.26171875 C-49.90322581 7 -49.90322581 7 -45.8125 7 C-44.554375 7.33 -43.29625 7.66 -42 8 C-39.89785506 8.34585418 -37.79348012 8.67832285 -35.6875 9 C-30.25508318 9.87245841 -30.25508318 9.87245841 -28 11 C-25.85595831 11.09706713 -23.70873249 11.12978536 -21.5625 11.125 C-20.40878906 11.12757813 -19.25507813 11.13015625 -18.06640625 11.1328125 C-14.95874333 11.13895922 -14.95874333 11.13895922 -12 10 C-12 10.99 -12 11.98 -12 13 C-12.87011719 13.18175781 -12.87011719 13.18175781 -13.7578125 13.3671875 C-17.37680254 14.1435385 -20.82145249 14.9359924 -24.3125 16.1875 C-27.0953057 17.02881335 -28.32741973 17.02791549 -31 16 C-30.01 15.67 -29.02 15.34 -28 15 C-27.67 14.34 -27.34 13.68 -27 13 C-28.216875 13.020625 -29.43375 13.04125 -30.6875 13.0625 C-33.07217254 13.06666901 -35.09379403 12.9807602 -37.4375 12.5 C-41.27897166 11.75044455 -45.09836318 11.92349732 -49 12 C-49.33 12.66 -49.66 13.32 -50 14 C-37.08783802 18.02666174 -21.94706333 21.79065343 -8.96484375 16.109375 C-5.15412242 13.74991118 -2.57330143 11.08047123 -1.37890625 6.74609375 C-0.87007517 4.5037278 -0.41086426 2.2621703 0 0 Z " fill="#65C7F0" transform="translate(203,141)"/>
<path d="M0 0 C5.64654647 -0.34414617 10.63506831 0.02560745 16.125 1.4375 C23.71262185 3.35933493 31.21315279 3.71011737 39 4 C39 4.99 39 5.98 39 7 C37.03277992 8.38123963 35.03131672 9.71488126 33 11 C32.67 11.66 32.34 12.32 32 13 C12.33333333 11.33333333 12.33333333 11.33333333 9 8 C7.31816052 7.76712992 5.6287584 7.58735834 3.9375 7.4375 C3.01839844 7.35371094 2.09929687 7.26992188 1.15234375 7.18359375 C0.08693359 7.09271484 0.08693359 7.09271484 -1 7 C-0.67 4.69 -0.34 2.38 0 0 Z " fill="#47C8FB" transform="translate(109,46)"/>
<path d="M0 0 C0.99 0.495 0.99 0.495 2 1 C0.625 2.5 0.625 2.5 -1 4 C-1.66 4 -2.32 4 -3 4 C-3 4.66 -3 5.32 -3 6 C-4.6572053 7.01560247 -6.32700756 8.01061935 -8 9 C-10.68454288 11.03125071 -13.27640433 13.17290861 -15.875 15.3125 C-16.55691406 15.86873047 -17.23882812 16.42496094 -17.94140625 16.99804688 C-21.24679129 19.70216663 -24.51054603 22.43958459 -27.72265625 25.25390625 C-30.20667688 27.39319845 -32.63123052 29.1242764 -35.5625 30.625 C-38.28878983 32.05988938 -40.70154373 33.48568412 -43.25 35.25 C-49.29943908 39.09964305 -57.05845257 38.63714687 -64 38 C-66.32613426 37.19536236 -68.23204675 36.26783732 -70.31640625 34.97265625 C-71.9991584 33.88705726 -71.9991584 33.88705726 -74.13671875 33.53125 C-74.75160156 33.3559375 -75.36648437 33.180625 -76 33 C-77.25 30.4375 -77.25 30.4375 -78 28 C-77.01 28 -76.02 28 -75 28 C-75 28.99 -75 29.98 -75 31 C-74.071875 31.28875 -73.14375 31.5775 -72.1875 31.875 C-69 33 -69 33 -66 35 C-56.83714761 36.25247623 -48.99662298 34.56773046 -41 30 C-39.29671681 28.3707726 -37.61838719 26.71358643 -36 25 C-32.6875 24.1875 -32.6875 24.1875 -30 24 C-30 23.01 -30 22.02 -30 21 C-28.93458984 20.51080078 -28.93458984 20.51080078 -27.84765625 20.01171875 C-26.92855469 19.57472656 -26.00945312 19.13773438 -25.0625 18.6875 C-24.14597656 18.25824219 -23.22945312 17.82898438 -22.28515625 17.38671875 C-19.69030588 16.14921339 -19.69030588 16.14921339 -19 13 C-20.98 13 -22.96 13 -25 13 C-23.73398069 10.46796138 -22.65538869 10.18640935 -20.125 9 C-17.55892982 7.78798161 -15.38096302 6.58730868 -13 5 C-11.53483579 4.46034467 -10.0537507 3.96271523 -8.5625 3.5 C-6.17150429 2.75559525 -4.05116699 2.02738775 -1.83984375 0.84375 C-0.92912109 0.42609375 -0.92912109 0.42609375 0 0 Z " fill="#8DF7F4" transform="translate(172,126)"/>
<path d="M0 0 C2.87459336 1.99971712 4.62907801 3.48939028 5.484375 6.97265625 C5.73357225 10.67600428 5.29743405 12.63947388 2.9375 15.5 C-0.74788284 17.38189762 -2.90846373 17.58450518 -7 17 C-9.75329021 15.20437595 -11.52627461 13.94745078 -13 11 C-13.3125 7.5625 -13.3125 7.5625 -13 4 C-9.36970189 0.2445192 -5.08483492 -0.61018019 0 0 Z " fill="#84EAF8" transform="translate(150,94)"/>
<path d="M0 0 C-0.928125 0.53625 -1.85625 1.0725 -2.8125 1.625 C-6.3923676 4.29235233 -7.3404202 5.90894281 -9 10 C-9.56915172 13.6508519 -9.56915172 13.6508519 -9.6875 17.375 C-9.75324219 18.62023437 -9.81898437 19.86546875 -9.88671875 21.1484375 C-9.92410156 22.08945313 -9.96148437 23.03046875 -10 24 C-9.34 24 -8.68 24 -8 24 C-7.78085938 24.61746094 -7.56171875 25.23492187 -7.3359375 25.87109375 C-5.2565683 31.42453099 -2.78031729 36.0575497 0.6171875 40.90625 C2.53996992 43.81758158 3.7152002 46.75741003 5 50 C5.556875 51.0725 6.11375 52.145 6.6875 53.25 C8 56 8 56 8 59 C9.485 59.495 9.485 59.495 11 60 C11.9921875 62.20703125 11.9921875 62.20703125 13 65 C14.54049732 67.88543928 16.14749533 70.72727045 17.7578125 73.57421875 C19 76 19 76 19 78 C18.01 78 17.02 78 16 78 C16 77.34 16 76.68 16 76 C14.515 75.505 14.515 75.505 13 75 C9.67581264 72.07154923 8.19497492 70.45190062 7.59765625 66.00390625 C7.49283634 63.87427244 7.43624575 61.7415852 7.43359375 59.609375 C7.21896484 58.31773438 7.21896484 58.31773438 7 57 C5.07247157 55.57376678 5.07247157 55.57376678 3 55 C3 53.68 3 52.36 3 51 C2.34 51 1.68 51 1 51 C0.608125 49.989375 0.21625 48.97875 -0.1875 47.9375 C-1.35494368 45.16343144 -2.69769942 42.98082795 -4.5625 40.625 C-7.13140474 37.23312279 -7.8907511 34.08212761 -8.54296875 29.91796875 C-8.87690763 27.77379831 -8.87690763 27.77379831 -11 26 C-11.475864 22.75092854 -11.37037705 19.46748498 -11.375 16.1875 C-11.39949219 15.28451172 -11.42398438 14.38152344 -11.44921875 13.45117188 C-11.46814532 9.1579958 -11.41468734 6.68040087 -9.140625 2.94921875 C-6.34097029 0.39989813 -3.67528542 -1.83764271 0 0 Z " fill="#8ADFEE" transform="translate(109,55)"/>
<path d="M0 0 C8.58 0 17.16 0 26 0 C26 25.08 26 50.16 26 76 C31.61 76 37.22 76 43 76 C43 76.33 43 76.66 43 77 C36.73 77 30.46 77 24 77 C23.67 52.58 23.34 28.16 23 3 C11.615 2.505 11.615 2.505 0 2 C0 1.34 0 0.68 0 0 Z " fill="#D3FEFE" transform="translate(231,73)"/>
<path d="M0 0 C0.33 0.99 0.66 1.98 1 3 C0.01 3.495 0.01 3.495 -1 4 C-1.56183028 17.31225644 -1.30899289 27.55576407 8 38 C8.86357898 39.50386496 9.69532859 41.02630913 10.5 42.5625 C12.02664824 45.46021449 13.43397492 47.62771512 15.875 49.8125 C16.57625 50.534375 17.2775 51.25625 18 52 C17.8125 54.3125 17.8125 54.3125 17 56 C16.34 55.67 15.68 55.34 15 55 C14.896875 55.7425 14.79375 56.485 14.6875 57.25 C13.95746496 60.17014018 12.93210602 61.73187554 11 64 C11.12568359 63.06027344 11.12568359 63.06027344 11.25390625 62.1015625 C11.35574219 61.28429687 11.45757812 60.46703125 11.5625 59.625 C11.66691406 58.81289062 11.77132812 58.00078125 11.87890625 57.1640625 C12.18237328 54.95100814 12.18237328 54.95100814 11 53 C11.99 53 12.98 53 14 53 C13.20532292 49.72117627 13.20532292 49.72117627 10 47.5625 C6.8595968 44.88007226 6.79737557 44.64514547 6 41 C4.3545622 39.31237149 2.68711423 37.6459651 1 36 C-0.9807081 32.8874587 -1 31.90120363 -1 28 C-1.66 28 -2.32 28 -3 28 C-4.72293135 23.53665816 -5.22240791 19.89798769 -5.125 15.125 C-5.10695313 13.97257812 -5.08890625 12.82015625 -5.0703125 11.6328125 C-5.04710938 10.76398438 -5.02390625 9.89515625 -5 9 C-4.34 9 -3.68 9 -3 9 C-3 7.02 -3 5.04 -3 3 C-2.01 2.67 -1.02 2.34 0 2 C0 1.34 0 0.68 0 0 Z " fill="#D0FBFE" transform="translate(90,56)"/>
<path d="M0 0 C0.33 0 0.66 0 1 0 C1.10957031 0.88042969 1.21914062 1.76085937 1.33203125 2.66796875 C1.49058594 3.82941406 1.64914063 4.99085938 1.8125 6.1875 C1.96332031 7.33605469 2.11414063 8.48460937 2.26953125 9.66796875 C3.01288121 13.05875759 3.92827776 15.23091671 6 18 C8.70590396 18.95367452 8.70590396 18.95367452 12 19 C12.68449219 19.05027344 13.36898437 19.10054687 14.07421875 19.15234375 C21.9643112 19.49658862 28.38863024 17.22393068 35 13 C35.78375 12.690625 36.5675 12.38125 37.375 12.0625 C39.64933586 11.14193549 41.58312397 10.11671256 43.6875 8.875 C47 7 47 7 49 7 C49 7.66 49 8.32 49 9 C48.45730469 9.25394531 47.91460937 9.50789062 47.35546875 9.76953125 C46.64003906 10.11371094 45.92460937 10.45789063 45.1875 10.8125 C44.47980469 11.14894531 43.77210938 11.48539063 43.04296875 11.83203125 C40.97520873 13.01417321 39.64817028 14.30188517 38 16 C36.03533587 17.06775224 34.03144641 18.06553465 32 19 C31.2575 19.350625 30.515 19.70125 29.75 20.0625 C21.8569706 22.75330548 14.23268387 23.82209643 6 22 C1.64831131 19.55217511 -0.29573127 16.66431441 -2 12 C-2.53595477 7.66211608 -2.49487821 3.74231731 0 0 Z " fill="#8EF8F6" transform="translate(98,132)"/>
<path d="M0 0 C2.64590014 -0.02684679 5.29153096 -0.04676357 7.9375 -0.0625 C8.69224609 -0.07087891 9.44699219 -0.07925781 10.22460938 -0.08789062 C12.14994313 -0.09652441 14.07535581 -0.05224333 16 0 C17.66165207 1.66165207 17.11959725 3.6651603 17.12442017 5.88401794 C17.12082489 6.58172806 17.11722961 7.27943817 17.11352539 7.99829102 C17.11367142 8.72995483 17.11381744 9.46161865 17.1139679 10.2154541 C17.11326867 12.64496784 17.10547585 15.07440583 17.09765625 17.50390625 C17.0957921 19.18399514 17.09436819 20.86408457 17.09336853 22.54417419 C17.08954307 26.97473643 17.07971256 31.4052661 17.06866455 35.83581543 C17.05845103 40.35342976 17.05387104 44.87104934 17.04882812 49.38867188 C17.03809031 58.25912893 17.02101356 67.12956176 17 76 C16.34 75.67 15.68 75.34 15 75 C14.67 50.91 14.34 26.82 14 2 C7.07 1.505 7.07 1.505 0 1 C0 0.67 0 0.34 0 0 Z " fill="#94F4EF" transform="translate(395,57)"/>
<path d="M0 0 C4.976154 2.23068972 7.50833136 5.14124616 10 10 C9.67 10.66 9.34 11.32 9 12 C8.01 11.01 7.02 10.02 6 9 C7.35824977 12.49623553 8.84683088 15.88317997 10.5 19.25 C10.9228125 20.12140625 11.345625 20.9928125 11.78125 21.890625 C12.82328303 24.14110915 12.82328303 24.14110915 15 25 C15.33 25.99 15.66 26.98 16 28 C16.66 28.33 17.32 28.66 18 29 C18.69261182 30.68205727 19.30541041 32.39740182 19.875 34.125 C21.0428534 37.49397486 22.19238977 40.58696652 24.0625 43.625 C28.32449016 51.04911188 29.47439462 56.55573992 28 65 C27.34 65 26.68 65 26 65 C25.97421875 64.16597656 25.9484375 63.33195312 25.921875 62.47265625 C25.48934118 53.89079211 23.96475562 47.67519155 19.375 40.4375 C18.04992224 38.08849852 17.59954827 36.4183516 17.0625 33.8125 C16.46779334 29.98832068 16.46779334 29.98832068 14.125 28.875 C13.073125 28.441875 13.073125 28.441875 12 28 C8.69645251 23.87056563 6.88897692 19.52282826 5.015625 14.6015625 C3.72798644 11.3032268 2.24494076 8.1113937 0.734375 4.91015625 C0 3 0 3 0 0 Z " fill="#B0FCFB" transform="translate(169,77)"/>
<path d="M0 0 C2.8875412 0 3.71781961 1.2503345 5.75 3.25 C8.06236317 5.95493828 8.97998566 7.2956859 9.08203125 10.88671875 C8.55361749 13.98965973 7.83338183 16.96553316 7 20 C6.66095763 21.66551468 6.32698981 23.33207717 6 25 C5.52747621 27.22761213 5.01047284 28.97937409 3.9765625 31.015625 C2.55543199 33.90336219 2.36594491 36.82847741 2 40 C1.67 40 1.34 40 1 40 C0.97311849 38.35425434 0.95365877 36.70838587 0.9375 35.0625 C0.92589844 34.14597656 0.91429688 33.22945312 0.90234375 32.28515625 C1 30 1 30 2 29 C2.3773881 26.58235747 2.70735161 24.17806712 3 21.75 C3.52815763 17.4669717 4.08378171 13.22114857 5 9 C2.46995289 9.40887859 2.46995289 9.40887859 0 11 C-0.83081318 13.74923635 -1.33167811 16.06326057 -1.6875 18.875 C-2.95483854 27.67552478 -2.95483854 27.67552478 -5 31 C-4.71346307 20.09726991 -3.22540878 10.4413233 0 0 Z " fill="#74CDEC" transform="translate(94,103)"/>
<path d="M0 0 C0.66 0.33 1.32 0.66 2 1 C1.01 2.65 0.02 4.3 -1 6 C2.465 5.505 2.465 5.505 6 5 C3.97649727 8.0352541 3.42906083 8.51461353 0.296875 9.90234375 C-0.43660156 10.23556641 -1.17007813 10.56878906 -1.92578125 10.91210938 C-2.69277344 11.25048828 -3.45976562 11.58886719 -4.25 11.9375 C-10.50923139 14.70108855 -10.50923139 14.70108855 -16.3671875 18.20703125 C-19.02303049 20.01568397 -20.84153517 20.6284159 -24 21 C-23.67 19.68 -23.34 18.36 -23 17 C-22.443125 16.938125 -21.88625 16.87625 -21.3125 16.8125 C-17.26405897 15.39007477 -14.83857696 11.91719355 -12 8.8125 C-8.88548144 5.98996755 -6.18026975 5 -2 5 C-1.855625 4.360625 -1.71125 3.72125 -1.5625 3.0625 C-1 1 -1 1 0 0 Z " fill="#7AE5EF" transform="translate(142,62)"/>
<path d="M0 0 C1.69630027 3.39260054 0.0021541 6.96233875 -0.875 10.5 C-1.06191406 11.28503906 -1.24882813 12.07007812 -1.44140625 12.87890625 C-2.8485517 18.69710341 -2.8485517 18.69710341 -4 21 C-4.65986861 33.39791595 -4.64092253 43.72427659 3 54 C2.67 54.66 2.34 55.32 2 56 C1.34 55.67 0.68 55.34 0 55 C0 54.34 0 53.68 0 53 C-0.66 53 -1.32 53 -2 53 C-2 51.68 -2 50.36 -2 49 C-2.9590625 48.8453125 -2.9590625 48.8453125 -3.9375 48.6875 C-4.618125 48.460625 -5.29875 48.23375 -6 48 C-7.31865056 44.04404833 -7.19110587 40.24931118 -7.1875 36.125 C-7.18741943 35.2788916 -7.18733887 34.4327832 -7.18725586 33.56103516 C-7.02036524 15.02036524 -7.02036524 15.02036524 -4 12 C-3.75738335 9.74456376 -3.61667867 7.49054477 -3.4765625 5.2265625 C-2.91636963 2.60926796 -2.03004872 1.6826607 0 0 Z " fill="#C9FAFE" transform="translate(93,103)"/>
<path d="M0 0 C4.44751611 0.60647947 8.8810097 1.28541552 13.3125 2 C14.33988281 2.165 15.36726563 2.33 16.42578125 2.5 C19 3 19 3 21 4 C23.14404169 4.09706713 25.29126751 4.12978536 27.4375 4.125 C28.59121094 4.12757813 29.74492187 4.13015625 30.93359375 4.1328125 C34.04125667 4.13895922 34.04125667 4.13895922 37 3 C37 3.99 37 4.98 37 6 C36.12988281 6.18175781 36.12988281 6.18175781 35.2421875 6.3671875 C31.62319746 7.1435385 28.17854751 7.9359924 24.6875 9.1875 C21.9046943 10.02881335 20.67258027 10.02791549 18 9 C18.99 8.67 19.98 8.34 21 8 C21.33 7.34 21.66 6.68 22 6 C20.783125 6.020625 19.56625 6.04125 18.3125 6.0625 C15.92782746 6.06666901 13.90620597 5.9807602 11.5625 5.5 C7.72102834 4.75044455 3.90163682 4.92349732 0 5 C-0.33 5.99 -0.66 6.98 -1 8 C-2.65 8 -4.3 8 -6 8 C-4.02 5.36 -2.04 2.72 0 0 Z " fill="#6CCCF1" transform="translate(154,148)"/>
<path d="M0 0 C0 0.66 0 1.32 0 2 C0.66 2 1.32 2 2 2 C2.05395478 3.62463842 2.09277195 5.24978541 2.125 6.875 C2.14820313 7.77992187 2.17140625 8.68484375 2.1953125 9.6171875 C2 12 2 12 0 14 C-3.125 14.125 -3.125 14.125 -6 14 C-7.58505557 10.53269093 -8.58750054 7.81875349 -8 4 C-5.29021558 0.41921344 -4.64188985 0 0 0 Z " fill="#56D7FB" transform="translate(149,95)"/>
<path d="M0 0 C6.54118406 0.27834826 11.21002185 2.50547845 16 7 C22.96894395 16.15179182 21.97690279 28.27182846 20.60546875 39.12109375 C20.125 41.5625 20.125 41.5625 19 45 C18.01 45.495 18.01 45.495 17 46 C17.0721875 45.33097656 17.144375 44.66195312 17.21875 43.97265625 C17.83077868 37.63985944 18.10859715 31.35815297 18.125 25 C18.12951172 24.27047119 18.13402344 23.54094238 18.13867188 22.78930664 C18.18667495 17.79516277 18.18667495 17.79516277 17 13 C16.360625 12.690625 15.72125 12.38125 15.0625 12.0625 C13 11 13 11 12.22265625 8.578125 C11.21146937 5.77843153 11.21146937 5.77843153 8.3984375 4.63671875 C7.40070313 4.32347656 6.40296875 4.01023437 5.375 3.6875 C4.37210938 3.36136719 3.36921875 3.03523438 2.3359375 2.69921875 C1.17964844 2.35310547 1.17964844 2.35310547 0 2 C0 1.34 0 0.68 0 0 Z " fill="#77C0E4" transform="translate(186,45)"/>
<path d="M0 0 C0.33 0 0.66 0 1 0 C1 6.6 1 13.2 1 20 C12.55 20 24.1 20 36 20 C35.1302743 24.34862851 34.0525056 27.16270693 32 31 C31.67 31 31.34 31 31 31 C30.77942165 27.02958963 31.11656068 25.76687864 33 22 C22.11 22 11.22 22 0 22 C0 14.74 0 7.48 0 0 Z " fill="#A8F6F3" transform="translate(333,74)"/>
<path d="M0 0 C-3.01031744 0.93423645 -3.86650268 1.04449911 -7 0 C-10.35036022 -0.22691683 -13.7052351 -0.18514733 -17.0625 -0.1875 C-17.98611328 -0.19974609 -18.90972656 -0.21199219 -19.86132812 -0.22460938 C-21.18487305 -0.22750977 -21.18487305 -0.22750977 -22.53515625 -0.23046875 C-23.343479 -0.23457764 -24.15180176 -0.23868652 -24.98461914 -0.24291992 C-27.22878303 -0.18282252 -27.22878303 -0.18282252 -29 2 C-29.7425 2.268125 -30.485 2.53625 -31.25 2.8125 C-33.76217988 3.89730495 -35.16029507 4.8654456 -37.1875 6.625 C-40 9 -40 9 -42 9 C-41.4713037 5.19338662 -40.69273619 2.78890534 -38 0 C-26.64701914 -5.82990909 -11.6552708 -3.6463417 0 0 Z " fill="#D0F6FC" transform="translate(133,46)"/>
<path d="M0 0 C0.66 0.33 1.32 0.66 2 1 C2.10883596 3.37625177 2.18766696 5.74743976 2.25 8.125 C2.30027344 9.12273437 2.30027344 9.12273437 2.3515625 10.140625 C2.45230077 15.27827693 1.26097901 18.07982487 -2 22 C-9.6674265 26.51025088 -17.05900452 25.4777835 -25.34765625 23.4375 C-26.16556641 23.2209375 -26.16556641 23.2209375 -27 23 C-27 22.67 -27 22.34 -27 22 C-20.07 22 -13.14 22 -6 22 C-5.67 20.68 -5.34 19.36 -5 18 C-4.67 17.34 -4.34 16.68 -4 16 C-3.34 16 -2.68 16 -2 16 C-1.34 10.72 -0.68 5.44 0 0 Z " fill="#E0FDFE" transform="translate(193,128)"/>
<path d="M0 0 C0.88365234 0.00902344 1.76730469 0.01804688 2.67773438 0.02734375 C4.84777359 0.05080363 7.01767247 0.08667135 9.1875 0.125 C9.6825 1.61 9.6825 1.61 10.1875 3.125 C9.20910156 3.09019531 8.23070312 3.05539063 7.22265625 3.01953125 C-0.39935655 2.86214455 -6.69844275 3.19746685 -13.8125 6.125 C-15.14034745 6.47955612 -16.47262984 6.81899861 -17.8125 7.125 C-17.8125 7.785 -17.8125 8.445 -17.8125 9.125 C-19.4335103 9.82185498 -21.05946066 10.50722861 -22.6875 11.1875 C-23.59242188 11.57035156 -24.49734375 11.95320313 -25.4296875 12.34765625 C-27.8125 13.125 -27.8125 13.125 -29.8125 12.125 C-26.65721661 8.00941297 -23.73389669 7.46339159 -18.8359375 6.8125 C-16.62946606 6.32812524 -16.62946606 6.32812524 -15.8515625 4.1875 C-14.8125 2.125 -14.8125 2.125 -12.80078125 0.8828125 C-8.51386134 -0.20432797 -4.40202958 -0.08534882 0 0 Z " fill="#82D9F1" transform="translate(177.8125,53.875)"/>
<path d="M0 0 C1.62463842 -0.05395478 3.24978541 -0.09277195 4.875 -0.125 C5.77992187 -0.14820313 6.68484375 -0.17140625 7.6171875 -0.1953125 C10 0 10 0 12 2 C11.67 2.99 11.34 3.98 11 5 C11.598125 5.12375 12.19625 5.2475 12.8125 5.375 C15 6 15 6 18 8 C11.58311325 8.10349817 5.37305598 7.74507544 -1 7 C-0.67 4.69 -0.34 2.38 0 0 Z " fill="#52DDF9" transform="translate(109,46)"/>
<path d="M0 0 C2.64 0 5.28 0 8 0 C4.66666667 1.66666667 1.33333333 3.33333333 -2 5 C-2 7.97 -2 10.94 -2 14 C-0.68 14.66 0.64 15.32 2 16 C2.33 16.33 2.66 16.66 3 17 C7.75604266 17.53624939 7.75604266 17.53624939 11.8125 15.5 C12.204375 15.005 12.59625 14.51 13 14 C13.66 14 14.32 14 15 14 C14.505 9.05 14.505 9.05 14 4 C16 5 16 5 16.80859375 6.890625 C18.47423234 13.13935612 18.47423234 13.13935612 16.3125 17.0625 C11.54643046 19.85020105 7.39609189 19.75464142 2 19 C-1.74030185 17.39701349 -2.73158465 16.40262302 -5 13 C-5.30891093 8.7524747 -5.33046701 5.6413547 -3 2 C-2.01 2 -1.02 2 0 2 C0 1.34 0 0.68 0 0 Z " fill="#D0F9FE" transform="translate(140,93)"/>
<path d="M0 0 C-0.66 1.65 -1.32 3.3 -2 5 C-1.34 5.66 -0.68 6.32 0 7 C-1.051875 7.556875 -2.10375 8.11375 -3.1875 8.6875 C-6.73953473 10.7017636 -9.24913686 12.9990584 -12 16 C-12.33 15.01 -12.66 14.02 -13 13 C-13.99 12.67 -14.98 12.34 -16 12 C-2.63106796 0 -2.63106796 0 0 0 Z " fill="#E9FCFE" transform="translate(157,141)"/>
<path d="M0 0 C0.495 0.99 0.495 0.99 1 2 C-6.26 2.33 -13.52 2.66 -21 3 C-21.33 4.32 -21.66 5.64 -22 7 C-24.3984375 8.73828125 -24.3984375 8.73828125 -27.375 10.3125 C-28.84066406 11.11107422 -28.84066406 11.11107422 -30.3359375 11.92578125 C-33 13 -33 13 -36 12 C-28.6 6 -28.6 6 -25 6 C-25 5.34 -25 4.68 -25 4 C-17.56166129 -0.95889247 -8.62632528 -0.2399905 0 0 Z " fill="#7ED8F3" transform="translate(188,43)"/>
<path d="M0 0 C0.33 0 0.66 0 1 0 C1.07652185 3.67304859 1.0235704 6.86800575 0.375 10.5 C-0.68905718 18.00751456 0.98842876 26.75834352 3 34 C-1.18502859 30.17837725 -2.78282123 25.50694356 -3.12890625 19.91845703 C-3.2562629 14.94199595 -3.15421222 9.97477208 -3 5 C-2.01 4.67 -1.02 4.34 0 4 C0 2.68 0 1.36 0 0 Z " fill="#8BF6F7" transform="translate(91,55)"/>
<path d="M0 0 C0.99 0.33 1.98 0.66 3 1 C4.02734375 3.2578125 4.02734375 3.2578125 4.9375 6.125 C6.07890974 9.50566397 7.18555686 12.58750423 9.0625 15.625 C13.32449016 23.04911188 14.47439462 28.55573992 13 37 C12.34 37 11.68 37 11 37 C10.97421875 36.16597656 10.9484375 35.33195312 10.921875 34.47265625 C10.49322063 25.96776381 9.02859537 19.72460877 4.4375 12.5625 C2.22695021 8.62195472 1.18853697 4.34111019 0 0 Z " fill="#87F6F7" transform="translate(184,105)"/>
<path d="M0 0 C0.66 0.33 1.32 0.66 2 1 C0.625 2.5 0.625 2.5 -1 4 C-1.66 4 -2.32 4 -3 4 C-3 4.66 -3 5.32 -3 6 C-5.87771795 7.91847864 -8.88626628 9.50079488 -12 11 C-11.67 10.01 -11.34 9.02 -11 8 C-11.99 7.67 -12.98 7.34 -14 7 C-14.33 7.99 -14.66 8.98 -15 10 C-17.49451413 12.49451413 -18.67389735 12.98118639 -22.25 13.1875 C-23.1575 13.125625 -24.065 13.06375 -25 13 C-23.73398069 10.46796138 -22.65538869 10.18640935 -20.125 9 C-17.55892982 7.78798161 -15.38096302 6.58730868 -13 5 C-11.53483579 4.46034467 -10.0537507 3.96271523 -8.5625 3.5 C-6.17150429 2.75559525 -4.05116699 2.02738775 -1.83984375 0.84375 C-1.23269531 0.5653125 -0.62554687 0.286875 0 0 Z " fill="#8CF8EC" transform="translate(172,126)"/>
<path d="M0 0 C0.33 0.66 0.66 1.32 1 2 C2.2065625 2.433125 2.2065625 2.433125 3.4375 2.875 C6 4 6 4 7.3125 6.125 C7.539375 6.74375 7.76625 7.3625 8 8 C7.401875 7.79375 6.80375 7.5875 6.1875 7.375 C3.71549154 6.69328085 3.71549154 6.69328085 1 9 C0.34305026 11.65699674 -0.15942066 14.17985411 -0.5625 16.875 C-1.92892499 25.60450363 -1.92892499 25.60450363 -4 29 C-3.62658947 18.96942063 -2.64768056 9.72481414 0 0 Z " fill="#65D3FA" transform="translate(93,105)"/>
<path d="M0 0 C-0.46922129 4.53315481 -1.92689478 6.39389426 -5.3125 9.375 C-6.48232422 10.43847656 -6.48232422 10.43847656 -7.67578125 11.5234375 C-10 13 -10 13 -12.29296875 12.7265625 C-13.13794922 12.36691406 -13.13794922 12.36691406 -14 12 C-12.1875 10 -12.1875 10 -10 8 C-9.01 8 -8.02 8 -7 8 C-7 7.34 -7 6.68 -7 6 C-5.5 4.375 -5.5 4.375 -4 3 C-4.83144531 3.45052734 -4.83144531 3.45052734 -5.6796875 3.91015625 C-6.40414062 4.29042969 -7.12859375 4.67070312 -7.875 5.0625 C-8.95394531 5.63677734 -8.95394531 5.63677734 -10.0546875 6.22265625 C-10.69664062 6.47917969 -11.33859375 6.73570312 -12 7 C-12.66 6.67 -13.32 6.34 -14 6 C-12.60147088 3.20294175 -10.86348142 3.09085007 -8 2 C-4.77208445 -0.1519437 -3.71599191 -0.20086443 0 0 Z " fill="#D2FDFB" transform="translate(176,124)"/>
<path d="M0 0 C0.7319458 -0.00974854 1.4638916 -0.01949707 2.21801758 -0.02954102 C3.03818359 -0.04049805 3.85834961 -0.05145508 4.70336914 -0.06274414 C5.58089844 -0.05307617 6.45842773 -0.0434082 7.36254883 -0.03344727 C8.25425781 -0.03022461 9.1459668 -0.02700195 10.06469727 -0.02368164 C18.23440233 0.14572948 25.4522068 1.78296695 33.17504883 4.40405273 C33.17504883 4.73405273 33.17504883 5.06405273 33.17504883 5.40405273 C27.67142165 5.68389818 23.09197303 5.25534699 17.73754883 3.90405273 C10.4737798 2.10297784 3.4915808 1.45297754 -3.82495117 3.40405273 C-1.82495117 0.40405273 -1.82495117 0.40405273 0 0 Z " fill="#6CC9EE" transform="translate(107.824951171875,44.595947265625)"/>
<path d="M0 0 C4.14162709 5.17703386 4.53677597 5.85812653 4.4375 12 C4.43621094 13.19625 4.43492187 14.3925 4.43359375 15.625 C3.97239304 19.21488658 3.15670361 21.1261401 1 24 C-1.1875 25.3125 -1.1875 25.3125 -3 26 C-2.505 24.515 -2.505 24.515 -2 23 C-1.34 23 -0.68 23 0 23 C0 15.41 0 7.82 0 0 Z " fill="#D2F8FB" transform="translate(205,127)"/>
<path d="M0 0 C4.87747378 3.39945142 8.96618573 7.88397159 12 13 C11.67 13.99 11.34 14.98 11 16 C10.01 16.33 9.02 16.66 8 17 C0 4.54150198 0 4.54150198 0 0 Z " fill="#7CFBF2" transform="translate(174,85)"/>
<path d="M0 0 C1.65 0 3.3 0 5 0 C5 0.99 5 1.98 5 3 C3.03277992 4.38123963 1.03131672 5.71488126 -1 7 C-1.33 7.66 -1.66 8.32 -2 9 C-9.52592433 8.3622098 -16.67098882 6.80110167 -24 5 C-24 4.67 -24 4.34 -24 4 C-19.68616231 3.84593437 -16.03276605 3.86654027 -11.875 5.0625 C-6.91834506 6.26169071 -3.74692361 5.58230787 1 4 C0.67 2.68 0.34 1.36 0 0 Z " fill="#75D0F1" transform="translate(143,50)"/>
<path d="M0 0 C0.33 0.99 0.66 1.98 1 3 C0.01 3.495 0.01 3.495 -1 4 C-1 11.92 -1 19.84 -1 28 C-1.66 28 -2.32 28 -3 28 C-4.72293135 23.53665816 -5.22240791 19.89798769 -5.125 15.125 C-5.10695313 13.97257812 -5.08890625 12.82015625 -5.0703125 11.6328125 C-5.04710938 10.76398438 -5.02390625 9.89515625 -5 9 C-4.34 9 -3.68 9 -3 9 C-3 7.02 -3 5.04 -3 3 C-2.01 2.67 -1.02 2.34 0 2 C0 1.34 0 0.68 0 0 Z " fill="#DAFEFE" transform="translate(90,56)"/>
<path d="M0 0 C0.33 0 0.66 0 1 0 C1.16435547 1.30324219 1.16435547 1.30324219 1.33203125 2.6328125 C2.45696426 11.22856045 2.45696426 11.22856045 6 19 C3.6875 18.875 3.6875 18.875 1 18 C-2.31114541 13.31872546 -2.4450987 9.51922383 -2 4 C-1 1.5 -1 1.5 0 0 Z " fill="#A6F2F6" transform="translate(98,132)"/>
<path d="M0 0 C2.97752446 0.33083605 4.81374721 0.87415352 7.3125 2.5625 C9.87775794 6.26787258 9.56618631 8.54128279 9 13 C7.4375 15 7.4375 15 5 16 C1.25 16.1875 1.25 16.1875 -2 16 C-2 15.67 -2 15.34 -2 15 C-0.02 14.34 1.96 13.68 4 13 C4.33 9.7 4.66 6.4 5 3 C4.34 3 3.68 3 3 3 C3 2.34 3 1.68 3 1 C2.01 0.67 1.02 0.34 0 0 Z " fill="#8AC8E5" transform="translate(146,94)"/>
<path d="M0 0 C0.99 0.33 1.98 0.66 3 1 C-1.625 5.875 -1.625 5.875 -5 7 C-5.33 7.99 -5.66 8.98 -6 10 C-7.32 10 -8.64 10 -10 10 C-10.33 11.32 -10.66 12.64 -11 14 C-7.40608886 12.66511872 -4.24509304 11.03977277 -1 9 C-0.67 9.66 -0.34 10.32 0 11 C-0.804375 11.474375 -1.60875 11.94875 -2.4375 12.4375 C-4.84753488 13.76900154 -4.84753488 13.76900154 -6 15 C-8.33297433 15.04092937 -10.66705225 15.04241723 -13 15 C-13.1875 12.625 -13.1875 12.625 -13 10 C-10 8 -10 8 -7 8 C-7 7.34 -7 6.68 -7 6 C-6.01 6 -5.02 6 -4 6 C-3.67 5.01 -3.34 4.02 -3 3 C-2.01 3 -1.02 3 0 3 C0 2.01 0 1.02 0 0 Z " fill="#E0FDFD" transform="translate(129,69)"/>
<path d="M0 0 C1.98 0 3.96 0 6 0 C5.63636795 2.57798841 5.40466367 3.69164073 3.29296875 5.30078125 C2.59816406 5.63464844 1.90335938 5.96851563 1.1875 6.3125 C0.50042969 6.65925781 -0.18664062 7.00601563 -0.89453125 7.36328125 C-3.34106905 8.10314333 -4.61786119 7.82973374 -7 7 C-7 6.01 -7 5.02 -7 4 C-4.69 3.34 -2.38 2.68 0 2 C0 1.34 0 0.68 0 0 Z " fill="#6FFCF8" transform="translate(147,139)"/>
<path d="M0 0 C2 1 2 1 3.11328125 3.61328125 C4.07338991 7.28030421 4.23212422 10.40255511 4.1875 14.1875 C4.18105469 15.39792969 4.17460937 16.60835937 4.16796875 17.85546875 C4 21 4 21 3 24 C2.01 24.33 1.02 24.66 0 25 C0.165 23.700625 0.33 22.40125 0.5 21.0625 C1.28762081 13.89515063 1.20970946 7.10704307 0 0 Z " fill="#76D4F9" transform="translate(194,61)"/>
<path d="M0 0 C-1 3 -1 3 -2.8203125 4.0625 C-3.58085937 4.371875 -4.34140625 4.68125 -5.125 5 C-5.93582031 5.33386719 -6.74664062 5.66773437 -7.58203125 6.01171875 C-8.37996094 6.33785156 -9.17789063 6.66398437 -10 7 C-10.99580078 7.47373047 -10.99580078 7.47373047 -12.01171875 7.95703125 C-15.51171339 9.61971851 -17.32539789 10.17172779 -21 9 C-19.824375 8.4225 -18.64875 7.845 -17.4375 7.25 C-13.53675896 5.30309372 -9.77060698 3.18695205 -6 1 C-4 0 -4 0 0 0 Z " fill="#CFF7FD" transform="translate(160,63)"/>
<path d="M0 0 C2.475 0.99 2.475 0.99 5 2 C4.67 2.66 4.34 3.32 4 4 C3.34 3.67 2.68 3.34 2 3 C5.14893658 10.91464415 5.14893658 10.91464415 8.875 18.5625 C10 21 10 21 9 24 C3.47219443 17.21146685 0.50062308 8.67746673 0 0 Z " fill="#E0FFFE" transform="translate(167,74)"/>
<path d="M0 0 C0.66 0.33 1.32 0.66 2 1 C-0.55417466 2.68077299 -3.11701497 4.34450921 -5.6875 6 C-6.40873047 6.47695312 -7.12996094 6.95390625 -7.87304688 7.4453125 C-14.5355535 11.70444915 -14.5355535 11.70444915 -19 11 C-19 10.01 -19 9.02 -19 8 C-17.96359375 7.59007812 -16.9271875 7.18015625 -15.859375 6.7578125 C-14.48954661 6.2136341 -13.11975698 5.66935813 -11.75 5.125 C-11.06808594 4.85558594 -10.38617188 4.58617187 -9.68359375 4.30859375 C-6.93903324 3.21609879 -4.24941231 2.13296484 -1.640625 0.7421875 C-1.09921875 0.49726563 -0.5578125 0.25234375 0 0 Z " fill="#9CF7F5" transform="translate(140,152)"/>
<path d="M0 0 C0.66 0 1.32 0 2 0 C5.33731444 3.58761303 7.24200069 6.42920178 9 11 C11.50698785 14.56858578 11.50698785 14.56858578 15 17 C15 17.66 15 18.32 15 19 C13.1875 18.8125 13.1875 18.8125 11 18 C9.4375 15.625 9.4375 15.625 8 13 C7.02149805 11.97895449 6.02019573 10.9793879 5 10 C2.05284411 6.70611989 0.50606864 4.42810056 0 0 Z " fill="#CCFAFE" transform="translate(110,114)"/>
<path d="M0 0 C4.01550878 4.88844547 4.13835792 8.67931502 4.125 14.9375 C4.12757813 16.14277344 4.13015625 17.34804687 4.1328125 18.58984375 C4.01821801 21.53222592 3.68262539 24.14489223 3 27 C2.67 27 2.34 27 2 27 C2 20.07 2 13.14 2 6 C1.34 6 0.68 6 0 6 C0 4.02 0 2.04 0 0 Z " fill="#8AEDF1" transform="translate(202,123)"/>
<path d="M0 0 C3.05944544 0.46355234 5.32256875 1.15805869 8.125 2.53125 C12.40738699 4.40257826 16.32965613 4.34148964 20.9375 4.1875 C21.71673828 4.17396484 22.49597656 4.16042969 23.29882812 4.14648438 C25.19952404 4.11150224 27.09985834 4.05770959 29 4 C28.67 4.66 28.34 5.32 28 6 C24.99900412 6.10890711 22.00203622 6.18773555 19 6.25 C18.16082031 6.28351563 17.32164063 6.31703125 16.45703125 6.3515625 C10.51558316 6.44367797 5.91665076 5.48851134 1 2 C0.67 1.34 0.34 0.68 0 0 Z " fill="#D9FEFE" transform="translate(96,159)"/>
<path d="M0 0 C-6.12523658 4.02515547 -11.8123904 4.52651995 -19 4 C-21.42752804 3.48964219 -23.64519668 2.80163517 -26 2 C-22.4258093 0.21290465 -17.97845703 1.00901441 -14.02929688 1.12695312 C-9.06675359 1.20499497 -4.4641875 -1.4880625 0 0 Z " fill="#DBFDFE" transform="translate(129,148)"/>
<path d="M0 0 C0.66 0.33 1.32 0.66 2 1 C2.10883596 3.37625177 2.18766696 5.74743976 2.25 8.125 C2.28351563 8.79015625 2.31703125 9.4553125 2.3515625 10.140625 C2.45638928 15.48679071 1.19826227 17.95810162 -2 22 C-2.66 21.67 -3.32 21.34 -4 21 C-3.525625 20.13375 -3.05125 19.2675 -2.5625 18.375 C-0.03434812 12.61510681 -0.24907171 6.19243805 0 0 Z " fill="#C2FBFE" transform="translate(193,128)"/>
<path d="M0 0 C-0.37390532 2.57334835 -0.6967231 3.73073547 -2.671875 5.484375 C-9.57875345 9.69081977 -9.57875345 9.69081977 -14 9 C-11.69806101 6.53522288 -9.24011346 4.68244803 -6.4375 2.8125 C-5.65246094 2.28269531 -4.86742187 1.75289062 -4.05859375 1.20703125 C-2 0 -2 0 0 0 Z " fill="#DCFEFE" transform="translate(140,154)"/>
<path d="M0 0 C0.95648438 0.09023437 1.91296875 0.18046875 2.8984375 0.2734375 C5.21836138 0.57256809 7.37617429 0.99618144 9.625 1.625 C9.295 2.285 8.965 2.945 8.625 3.625 C7.985625 3.46 7.34625 3.295 6.6875 3.125 C2.64913348 2.46567485 -1.29307258 2.54496221 -5.375 2.625 C-5.705 3.615 -6.035 4.605 -6.375 5.625 C-8.025 5.625 -9.675 5.625 -11.375 5.625 C-7.52696965 0.62256054 -6.29471701 -0.62440893 0 0 Z " fill="#44BEF1" transform="translate(159.375,150.375)"/>
<path d="M0 0 C1.0143635 3.16538964 0.95408471 5.27924121 0.1875 8.5 C0.01605469 9.2528125 -0.15539062 10.005625 -0.33203125 10.78125 C-1 13 -1 13 -2.03515625 15.046875 C-3.4542048 17.91944291 -3.63579671 20.84357145 -4 24 C-4.33 24 -4.66 24 -5 24 C-5.22038826 17.91483527 -4.98420252 12.83588976 -3 7 C-2.65864073 5.66869885 -2.32074044 4.33641852 -2 3 C-1.34 3 -0.68 3 0 3 C0 2.01 0 1.02 0 0 Z " fill="#8DDFF1" transform="translate(100,119)"/>
<path d="M0 0 C0.86625 0.37125 0.86625 0.37125 1.75 0.75 C-0.76407619 5.03324091 -2.37314139 7.39531705 -7.25 8.75 C-6.89947365 5.59526281 -6.38480924 3.9266466 -4.4375 1.375 C-2.25 -0.25 -2.25 -0.25 0 0 Z " fill="#77FAF0" transform="translate(160.25,133.25)"/>
<path d="M0 0 C4.976154 2.23068972 7.50833136 5.14124616 10 10 C9.67 10.66 9.34 11.32 9 12 C8.01 11.01 7.02 10.02 6 9 C5.01 9.495 5.01 9.495 4 10 C0 3.375 0 3.375 0 0 Z " fill="#99F9F2" transform="translate(169,77)"/>
<path d="M0 0 C2.95817972 2.44371368 3.58824483 4.21185245 4 8 C4.20009405 12.78485773 4.20487101 17.33112484 3 22 C2.67 22 2.34 22 2 22 C1.93941406 21.0821875 1.87882813 20.164375 1.81640625 19.21875 C1.37688758 12.781492 0.89469001 6.39064295 0 0 Z " fill="#D9FCFE" transform="translate(192,60)"/>
<path d="M0 0 C14.24880262 -0.57852281 14.24880262 -0.57852281 20 3 C21.4375 5.1875 21.4375 5.1875 22 7 C19.35737498 6.01845356 17.06663006 5.04472428 14.71875 3.46875 C11.55853116 1.76150534 9.25577196 1.5085589 5.6875 1.3125 C4.08455078 1.21388672 4.08455078 1.21388672 2.44921875 1.11328125 C1.64097656 1.07589844 0.83273438 1.03851563 0 1 C0 0.67 0 0.34 0 0 Z " fill="#D7F8FE" transform="translate(176,42)"/>
<path d="M0 0 C-0.66 1.65 -1.32 3.3 -2 5 C-1.34 5.66 -0.68 6.32 0 7 C-1.32 7.33 -2.64 7.66 -4 8 C-4 7.34 -4 6.68 -4 6 C-5.6396875 6.99 -5.6396875 6.99 -7.3125 8 C-9.93707538 9.58464929 -10.8256378 10 -14 10 C-12.04653795 8.32731078 -10.08770186 6.66178419 -8.125 5 C-7.56941406 4.52304688 -7.01382813 4.04609375 -6.44140625 3.5546875 C-2.2265625 0 -2.2265625 0 0 0 Z " fill="#DBF8F9" transform="translate(157,141)"/>
<path d="M0 0 C1.65 1.32 3.3 2.64 5 4 C5.66 3.34 6.32 2.68 7 2 C11 8.75 11 8.75 11 11 C10.01 11 9.02 11 8 11 C8 10.34 8 9.68 8 9 C7.01 8.67 6.02 8.34 5 8 C0 2.53488372 0 2.53488372 0 0 Z " fill="#ADE4ED" transform="translate(117,122)"/>
<path d="M0 0 C0 2 0 4 0 6 C-3.20807554 8.38314183 -6.06380262 9.43768609 -10 10 C-9.67 8.68 -9.34 7.36 -9 6 C-8.1646875 5.9071875 -8.1646875 5.9071875 -7.3125 5.8125 C-4.05012827 4.66626128 -2.31332126 2.50609803 0 0 Z " fill="#B8F0F0" transform="translate(128,73)"/>
<path d="M0 0 C0.33 0.66 0.66 1.32 1 2 C1.66 2 2.32 2 3 2 C4.01241247 3.88923398 5.00947425 5.78669944 6 7.6875 C6.556875 8.74324219 7.11375 9.79898438 7.6875 10.88671875 C8.9672274 13.92226262 9.28851043 15.76026826 9 19 C8.74476562 18.4534375 8.48953125 17.906875 8.2265625 17.34375 C6.26539331 13.59629294 3.82073637 10.1622369 1.4609375 6.65625 C0 4 0 4 0 0 Z " fill="#D7F8FD" transform="translate(103,83)"/>
<path d="M0 0 C3.63 0.33 7.26 0.66 11 1 C11 1.66 11 2.32 11 3 C15.29 3 19.58 3 24 3 C24 3.33 24 3.66 24 4 C15.38261147 4.30654742 8.06524596 4.39589303 0 1 C0 0.67 0 0.34 0 0 Z " fill="#C7F3FE" transform="translate(159,160)"/>
<path d="M0 0 C1.02845451 3.25173116 0.94200644 5.75972369 0.5 9.125 C-0.08291137 12.69368133 -0.08291137 12.69368133 1 16 C-0.32 15.67 -1.64 15.34 -3 15 C-3.3152595 9.01006953 -2.68219822 5.36439644 0 0 Z " fill="#D1F9FF" transform="translate(193,82)"/>
<path d="M0 0 C0.99 0.33 1.98 0.66 3 1 C2.360625 1.103125 1.72125 1.20625 1.0625 1.3125 C0.381875 1.539375 -0.29875 1.76625 -1 2 C-1.33 2.99 -1.66 3.98 -2 5 C-4.49451413 7.49451413 -5.67389735 7.98118639 -9.25 8.1875 C-10.1575 8.125625 -11.065 8.06375 -12 8 C-10.73398069 5.46796138 -9.65538869 5.18640935 -7.125 4 C-4.55892982 2.78798161 -2.38096302 1.58730868 0 0 Z " fill="#A7FBF8" transform="translate(159,131)"/>
<path d="M0 0 C3.17459451 2.11639634 3.87400881 3.26491376 5.5625 6.5625 C7.12610262 9.92783943 7.12610262 9.92783943 10 12 C10 12.66 10 13.32 10 14 C6.14674981 13.44953569 4.32822121 12.10429494 2 9 C1.09021566 6.03553418 0.49670098 3.05863232 0 0 Z " fill="#BEFBFE" transform="translate(95,92)"/>
<path d="M0 0 C0.66 0 1.32 0 2 0 C2 0.66 2 1.32 2 2 C1.34 2 0.68 2 0 2 C0 2.99 0 3.98 0 5 C0.99 5.33 1.98 5.66 3 6 C-0.465 7.485 -0.465 7.485 -4 9 C-4 4.9666466 -2.39120082 3.16482462 0 0 Z " fill="#91EBEE" transform="translate(132,69)"/>
<path d="M0 0 C2.31 1.98 4.62 3.96 7 6 C5.02 6.99 5.02 6.99 3 8 C1.73195434 10.0335948 1.73195434 10.0335948 1 12 C0.01 10.02 -0.98 8.04 -2 6 C-0.68 6.33 0.64 6.66 2 7 C1.34 4.69 0.68 2.38 0 0 Z " fill="#CEF5FC" transform="translate(194,98)"/>
<path d="M0 0 C0.66 0 1.32 0 2 0 C2.17835515 4.54805635 1.99785435 7.8794254 0 12 C-2.31 12 -4.62 12 -7 12 C-7 11.67 -7 11.34 -7 11 C-5.02 10.34 -3.04 9.68 -1 9 C-0.67 6.03 -0.34 3.06 0 0 Z " fill="#60C0E5" transform="translate(151,98)"/>
<path d="M0 0 C0.66 0.33 1.32 0.66 2 1 C-0.86536704 5.07763771 -3.43041625 7.02677065 -8 9 C-6.6284197 6.04582705 -5.13179822 3.47288594 -3 1 C-2.01 0.67 -1.02 0.34 0 0 Z " fill="#59DEF7" transform="translate(155,55)"/>
<path d="M0 0 C1.65 0 3.3 0 5 0 C5 3 5 3 3.64453125 4.38671875 C-2.42147893 8.69371531 -2.42147893 8.69371531 -7 8 C-4.33440687 6.22293791 -1.9719385 5.12451727 1 4 C0.67 2.68 0.34 1.36 0 0 Z " fill="#68BCE4" transform="translate(143,50)"/>
<path d="M0 0 C1.25425781 0.00902344 2.50851563 0.01804688 3.80078125 0.02734375 C4.75339844 0.03894531 5.70601562 0.05054688 6.6875 0.0625 C6.6875 0.3925 6.6875 0.7225 6.6875 1.0625 C4.27124679 1.39909249 1.85457192 1.73188388 -0.5625 2.0625 C-1.24441406 2.15789063 -1.92632812 2.25328125 -2.62890625 2.3515625 C-5.90621988 2.7970226 -8.99634153 3.0625 -12.3125 3.0625 C-12.3125 2.4025 -12.3125 1.7425 -12.3125 1.0625 C-8.15623632 0.05323521 -4.26884906 -0.03989579 0 0 Z " fill="#53CEF3" transform="translate(179.3125,44.9375)"/>
<path d="M0 0 C0.57492188 0.22042969 1.14984375 0.44085938 1.7421875 0.66796875 C-0.2578125 2.66796875 -0.2578125 2.66796875 -2.4453125 3.48046875 C-6.16587463 5.05137276 -9.02053612 7.25588046 -12.2578125 9.66796875 C-10.85089766 6.33923725 -9.25089669 4.53629503 -6.3828125 2.35546875 C-5.70476562 1.82308594 -5.02671875 1.29070313 -4.328125 0.7421875 C-2.2578125 -0.33203125 -2.2578125 -0.33203125 0 0 Z " fill="#A6F2FB" transform="translate(104.2578125,45.33203125)"/>
<path d="M0 0 C2.06298828 -0.34057617 2.06298828 -0.34057617 4.5703125 -0.29296875 C5.46621094 -0.28330078 6.36210938 -0.27363281 7.28515625 -0.26367188 C8.69087891 -0.2259668 8.69087891 -0.2259668 10.125 -0.1875 C11.06988281 -0.17396484 12.01476562 -0.16042969 12.98828125 -0.14648438 C15.32608779 -0.11106306 17.66276237 -0.06167271 20 0 C20 0.33 20 0.66 20 1 C18.83082031 1.06058594 17.66164063 1.12117188 16.45703125 1.18359375 C14.90884386 1.26804034 13.36066732 1.35268625 11.8125 1.4375 C11.04357422 1.47681641 10.27464844 1.51613281 9.48242188 1.55664062 C5.56748925 1.77507034 1.82879312 2.08692108 -2 3 C-1.34 2.01 -0.68 1.02 0 0 Z " fill="#78DCEE" transform="translate(106,45)"/>
<path d="M0 0 C2 1 2 1 2.80859375 2.890625 C3.4592843 5.33172497 3.95274351 7.46962993 4 10 C1.625 13.0625 1.625 13.0625 -1 15 C-1.66 14.67 -2.32 14.34 -3 14 C-2.50886719 13.44828125 -2.01773438 12.8965625 -1.51171875 12.328125 C0.30109424 9.53629931 0.3172951 8.03814259 0.1875 4.75 C0.16042969 3.85796875 0.13335937 2.9659375 0.10546875 2.046875 C0.07066406 1.37140625 0.03585938 0.6959375 0 0 Z " fill="#E1F7FD" transform="translate(154,97)"/>
<path d="M0 0 C5.62541841 0.45003347 8.61487125 1.68441485 13 5 C11 6 11 6 8.3984375 5.22265625 C6.90183594 4.64837891 6.90183594 4.64837891 5.375 4.0625 C4.37210938 3.68222656 3.36921875 3.30195312 2.3359375 2.91015625 C1.56507813 2.60980469 0.79421875 2.30945312 0 2 C0 1.34 0 0.68 0 0 Z " fill="#65BCE4" transform="translate(186,45)"/>
<path d="M0 0 C4.0042343 3.49087093 5.62671065 5.64951939 6 11 C5.01 10.67 4.02 10.34 3 10 C2.05078125 7.71484375 2.05078125 7.71484375 1.3125 4.9375 C1.06113281 4.01839844 0.80976563 3.09929687 0.55078125 2.15234375 C0.36902344 1.44207031 0.18726563 0.73179688 0 0 Z " fill="#DEFFFF" transform="translate(179,102)"/>
<path d="M0 0 C2.97 0 5.94 0 9 0 C5.39948847 2.40034102 2.03855465 4.32187705 -2.375 3.625 C-2.91125 3.41875 -3.4475 3.2125 -4 3 C-3.01 2.67 -2.02 2.34 -1 2 C-0.67 1.34 -0.34 0.68 0 0 Z " fill="#47C4FD" transform="translate(176,154)"/>
<path d="M0 0 C3.63 0 7.26 0 11 0 C11 0.66 11 1.32 11 2 C13.31 2 15.62 2 18 2 C18 2.33 18 2.66 18 3 C11.64012196 3.20190089 6.14778871 2.6277833 0 1 C0 0.67 0 0.34 0 0 Z " fill="#C3F2FE" transform="translate(166,150)"/>
<path d="M0 0 C-0.93972656 0.72316406 -0.93972656 0.72316406 -1.8984375 1.4609375 C-2.71570313 2.09257813 -3.53296875 2.72421875 -4.375 3.375 C-5.18710938 4.00148438 -5.99921875 4.62796875 -6.8359375 5.2734375 C-9.04223195 6.96773494 -9.04223195 6.96773494 -11 9 C-10.39831451 5.63056128 -9.34195851 3.50924126 -7 1 C-2.55421687 -1.27710843 -2.55421687 -1.27710843 0 0 Z " fill="#84E5EE" transform="translate(109,55)"/>
<path d="M0 0 C4.67692308 1.47692308 4.67692308 1.47692308 6.3125 4.125 C6.539375 4.74375 6.76625 5.3625 7 6 C4.69 5.67 2.38 5.34 0 5 C0 3.35 0 1.7 0 0 Z " fill="#45BFF2" transform="translate(94,107)"/>
<path d="M0 0 C0.33 0 0.66 0 1 0 C0.85769192 1.41702513 0.71099254 2.8336096 0.5625 4.25 C0.48128906 5.03890625 0.40007812 5.8278125 0.31640625 6.640625 C0.02365007 8.82364639 -0.42064419 10.8773182 -1 13 C-1.99 12.67 -2.98 12.34 -4 12 C-4.33 11.01 -4.66 10.02 -5 9 C-4.01 8.67 -3.02 8.34 -2 8 C-1.19787372 6.12612784 -1.19787372 6.12612784 -0.8125 3.9375 C-0.65394531 3.20402344 -0.49539062 2.47054687 -0.33203125 1.71484375 C-0.22246094 1.14894531 -0.11289063 0.58304687 0 0 Z " fill="#78C1E7" transform="translate(202,91)"/>
<path d="M0 0 C2.475 0.99 2.475 0.99 5 2 C4.67 2.66 4.34 3.32 4 4 C3.34 3.67 2.68 3.34 2 3 C2.66 5.31 3.32 7.62 4 10 C3.34 10 2.68 10 2 10 C1.34 6.7 0.68 3.4 0 0 Z " fill="#D3F9F9" transform="translate(167,74)"/>
<path d="M0 0 C0.33 0 0.66 0 1 0 C1.17942163 3.94727588 1.09350689 6.5980513 -1 10 C-1.66 10 -2.32 10 -3 10 C-2.49287967 6.28111761 -1.88391785 3.26545761 0 0 Z " fill="#DBF9FD" transform="translate(367,99)"/>
<path d="M0 0 C4.875 2.625 4.875 2.625 6 6 C6.66 6.33 7.32 6.66 8 7 C7.67 8.32 7.34 9.64 7 11 C5.82750647 9.54634731 4.66216184 8.08692581 3.5 6.625 C2.52546875 5.40683594 2.52546875 5.40683594 1.53125 4.1640625 C0 2 0 2 0 0 Z " fill="#A3F6F2" transform="translate(179,89)"/>
<path d="M0 0 C1.32 0.33 2.64 0.66 4 1 C4.66 3.31 5.32 5.62 6 8 C2.57701423 6.85900474 1.85241234 5.99914379 0 3 C0 2.01 0 1.02 0 0 Z " fill="#7EDEF0" transform="translate(102,89)"/>
<path d="M0 0 C4.38889325 0.66498383 7.9811485 2.18757677 12 4 C8.82127065 5.39864092 7.69888978 4.89282517 4.3125 3.6875 C1 2 1 2 0 0 Z " fill="#C0FEFC" transform="translate(96,159)"/>
<path d="M0 0 C0.66 0.33 1.32 0.66 2 1 C0.02 3.31 -1.96 5.62 -4 8 C-4.66 7.01 -5.32 6.02 -6 5 C-4.02 3.35 -2.04 1.7 0 0 Z " fill="#79E9F4" transform="translate(150,56)"/>
<path d="M0 0 C1.33804688 0.04060547 1.33804688 0.04060547 2.703125 0.08203125 C3.37859375 0.11683594 4.0540625 0.15164062 4.75 0.1875 C4.75 0.5175 4.75 0.8475 4.75 1.1875 C1.78 1.1875 -1.19 1.1875 -4.25 1.1875 C-4.58 2.1775 -4.91 3.1675 -5.25 4.1875 C-6.57 3.8575 -7.89 3.5275 -9.25 3.1875 C-6.10408067 0.38704377 -4.182936 -0.16511589 0 0 Z " fill="#B3EEF8" transform="translate(114.25,53.8125)"/>
<path d="M0 0 C1.65 0.33 3.3 0.66 5 1 C3.71034824 2.37562854 2.37310707 3.70766393 1 5 C0.34 5 -0.32 5 -1 5 C-0.67 3.35 -0.34 1.7 0 0 Z " fill="#84F7F1" transform="translate(154,137)"/>
<path d="M0 0 C1.1725131 0.95117134 2.33787015 1.91117009 3.5 2.875 C4.47453125 3.67550781 4.47453125 3.67550781 5.46875 4.4921875 C5.9740625 4.98976562 6.479375 5.48734375 7 6 C7 6.66 7 7.32 7 8 C5.1875 7.8125 5.1875 7.8125 3 7 C0 2.82142857 0 2.82142857 0 0 Z " fill="#DCFDFE" transform="translate(118,125)"/>
<path d="M0 0 C2.88437779 1.29299694 4.87219421 2.65941363 7 5 C6.67 5.66 6.34 6.32 6 7 C5.01 6.01 4.02 5.02 3 4 C2.01 4.495 2.01 4.495 1 5 C0.67 3.35 0.34 1.7 0 0 Z " fill="#B6F8F4" transform="translate(169,77)"/>
<path d="M0 0 C2.8125 -0.3125 2.8125 -0.3125 6 0 C7.875 2.5 7.875 2.5 9 5 C5.9168649 3.80100302 2.93720508 2.52299523 0 1 C0 0.67 0 0.34 0 0 Z " fill="#C0E7F8" transform="translate(189,44)"/>
<path d="M0 0 C0.66 0.33 1.32 0.66 2 1 C1.01 2.32 0.02 3.64 -1 5 C-0.34 5.66 0.32 6.32 1 7 C-0.65 6.67 -2.3 6.34 -4 6 C-2.84826645 3.53199953 -1.95216435 1.95216435 0 0 Z " fill="#8DD2F2" transform="translate(150,151)"/>
<path d="M0 0 C0.99 0.66 1.98 1.32 3 2 C0.03 2 -2.94 2 -6 2 C-6 1.34 -6 0.68 -6 0 C-3 -1 -3 -1 0 0 Z " fill="#4ED2F4" transform="translate(124,52)"/>
</svg>
